<?xml version="1.0" encoding="utf-8"?>
<svg width="80px" height="16px" viewbox="0 0 80 16" version="1.1" xmlns:xlink="http://www.w3.org/1999/xlink" xmlns="http://www.w3.org/2000/svg">
  <g id="by-bioblok-Copy-2">
    <g id="by-bioblok-Copy-3" transform="translate(-0.1599884 0)">
      <g id="Group">
        <path d="M3.602 9.194L3.586 9.194L3.113 11.189L0 11.189L0 0L3.616 0L3.616 5.43L3.632 5.43C4.242 4.08 5.92 3.195 7.889 3.195C10.697 3.195 12.528 4.83 12.528 7.32C12.528 9.81 10.697 11.43 7.889 11.43C5.906 11.43 4.212 10.559 3.602 9.194L3.602 9.194ZM8.912 7.3198C8.912 6.2548 7.844 5.5498 6.196 5.5498C4.56301 5.5498 3.479 6.2548 3.479 7.3198C3.479 8.38481 4.563 9.0748 6.196 9.0748C7.84401 9.0748 8.912 8.38481 8.912 7.3198L8.912 7.3198Z" transform="translate(0 0.83984375)" id="Shape" fill="#000000" fill-rule="evenodd" stroke="none" />
        <path d="M0 1.725C0 0.705 0.84 0 1.999 0C3.159 0 3.998 0.705 3.998 1.725C3.998 2.745 3.159 3.465 1.999 3.465C0.839001 3.465 0 2.745 0 1.725L0 1.725ZM0.199005 4.29004L3.80001 4.29004L3.80001 12.03L0.199005 12.03L0.199005 4.29004L0.199005 4.29004Z" transform="translate(14.268997 0)" id="Shape" fill="#000000" fill-rule="evenodd" stroke="none" />
        <path d="M0 4.125C0 1.635 2.503 0 6.317 0C10.147 0 12.65 1.635 12.65 4.125C12.65 6.615 10.147 8.235 6.317 8.235C2.503 8.235 0 6.614 0 4.125L0 4.125ZM9.03301 4.12496C9.03301 2.89496 7.96601 2.08496 6.31701 2.08496C4.67001 2.08496 3.60101 2.89496 3.60101 4.12496C3.60101 5.35496 4.66901 6.16496 6.31701 6.16496C7.96601 6.16396 9.03301 5.35496 9.03301 4.12496L9.03301 4.12496Z" transform="translate(20.007004 4.0351562)" id="Shape" fill="#000000" fill-rule="evenodd" stroke="none" />
        <path d="M3.602 9.194L3.586 9.194L3.113 11.189L0 11.189L0 0L3.616 0L3.616 5.43L3.632 5.43C4.242 4.08 5.92 3.195 7.889 3.195C10.697 3.195 12.528 4.83 12.528 7.32C12.528 9.81 10.697 11.43 7.889 11.43C5.90599 11.43 4.21099 10.559 3.602 9.194L3.602 9.194ZM8.912 7.3198C8.912 6.2548 7.844 5.5498 6.196 5.5498C4.563 5.5498 3.479 6.2548 3.479 7.3198C3.479 8.38481 4.563 9.0748 6.196 9.0748C7.843 9.0748 8.912 8.38481 8.912 7.3198L8.912 7.3198Z" transform="translate(34.51802 0.83984375)" id="Shape" fill="#000000" fill-rule="evenodd" stroke="none" />
        <path d="M0 0L3.616 0L3.616 11.189L0 11.189L0 0L0 0Z" transform="translate(48.925003 0.83984375)" id="Shape" fill="#000000" fill-rule="evenodd" stroke="none" />
        <path d="M0 4.125C0 1.635 2.503 0 6.317 0C10.147 0 12.65 1.635 12.65 4.125C12.65 6.615 10.147 8.235 6.317 8.235C2.503 8.235 0 6.614 0 4.125L0 4.125ZM9.03302 4.12496C9.03302 2.89496 7.96602 2.08496 6.31702 2.08496C4.67001 2.08496 3.60101 2.89496 3.60101 4.12496C3.60101 5.35496 4.66901 6.16496 6.31702 6.16496C7.96602 6.16396 9.03302 5.35496 9.03302 4.12496L9.03302 4.12496Z" transform="translate(54.417007 4.0351562)" id="Shape" fill="#000000" fill-rule="evenodd" stroke="none" />
        <path d="M0 0L3.616 0L3.616 5.745L3.632 5.745L6.683 3.45L11.154 3.45L7.172 6.39L11.231 11.19L7.09599 11.19L4.63899 8.13L3.61699 8.88L3.61699 11.19L0.000991821 11.19L0.000991821 0L0 0Z" transform="translate(68.93001 0.83984375)" id="Shape" fill="#000000" fill-rule="evenodd" stroke="none" />
      </g>
    </g>
  </g>
</svg>