<?xml version="1.0" encoding="utf-8"?>
<!-- Generator: Adobe Illustrator 16.0.0, SVG Export Plug-In . SVG Version: 6.00 Build 0)  -->
<!DOCTYPE svg PUBLIC "-//W3C//DTD SVG 1.1//EN" "http://www.w3.org/Graphics/SVG/1.1/DTD/svg11.dtd">
<svg version="1.1" id="Layer_1" xmlns="http://www.w3.org/2000/svg" xmlns:xlink="http://www.w3.org/1999/xlink" x="0px" y="0px"
	 width="248.343px" height="88.889px" viewBox="0 0 248.343 88.889" enable-background="new 0 0 248.343 88.889"
	 xml:space="preserve">
<g>
	<g>
		<path fill="#B3B2B3" d="M28.564,42.985c-0.074,0.068-0.154,0.13-0.241,0.182c-0.139,0.094-0.289,0.168-0.447,0.224
			c-0.222,0.086-0.452,0.151-0.686,0.194c-0.301,0.055-0.608,0.08-0.916,0.075c-0.59,0.015-1.179-0.093-1.725-0.316
			c-0.453-0.203-0.854-0.51-1.174-0.892c-0.321-0.401-0.558-0.863-0.698-1.356c-0.151-0.56-0.224-1.14-0.218-1.719
			c-0.01-0.597,0.07-1.19,0.241-1.762c0.143-0.503,0.387-0.972,0.716-1.38c0.327-0.387,0.739-0.696,1.202-0.903
			c0.536-0.229,1.115-0.341,1.696-0.328c0.292-0.004,0.584,0.027,0.87,0.088c0.229,0.048,0.457,0.115,0.675,0.205
			c0.167,0.063,0.331,0.146,0.481,0.246c0.103,0.064,0.201,0.139,0.293,0.219c0.073,0.065,0.137,0.144,0.188,0.228
			c0.053,0.091,0.082,0.193,0.082,0.299c-0.006,0.182-0.073,0.355-0.188,0.494c-0.123,0.163-0.258,0.317-0.403,0.458
			c-0.101-0.101-0.212-0.199-0.336-0.305c-0.126-0.104-0.264-0.196-0.41-0.271c-0.165-0.082-0.338-0.15-0.516-0.199
			c-0.212-0.055-0.428-0.08-0.646-0.077c-0.37-0.013-0.734,0.073-1.057,0.253c-0.276,0.161-0.51,0.386-0.682,0.657
			c-0.181,0.284-0.306,0.602-0.368,0.934c-0.075,0.349-0.113,0.706-0.111,1.062c-0.003,0.373,0.033,0.745,0.111,1.109
			c0.063,0.335,0.194,0.653,0.381,0.939c0.179,0.27,0.421,0.493,0.704,0.651c0.337,0.175,0.713,0.26,1.092,0.245
			c0.215,0.003,0.428-0.027,0.632-0.087c0.181-0.049,0.354-0.117,0.518-0.206c0.136-0.075,0.266-0.16,0.388-0.258l0.275-0.234
			l0.169,0.204c0.067,0.085,0.13,0.173,0.188,0.266c0.057,0.086,0.105,0.175,0.147,0.27c0.038,0.077,0.061,0.161,0.064,0.245
			c0,0.096-0.021,0.188-0.064,0.271C28.735,42.814,28.656,42.908,28.564,42.985z"/>
		<path fill="#B3B2B3" d="M38.634,39.301c0.003,0.567-0.067,1.133-0.21,1.685c-0.125,0.504-0.35,0.977-0.664,1.39
			c-0.309,0.403-0.711,0.728-1.174,0.946c-0.542,0.241-1.132,0.357-1.725,0.339c-0.584,0.02-1.165-0.101-1.697-0.346
			c-0.462-0.219-0.864-0.545-1.173-0.951c-0.302-0.417-0.521-0.886-0.646-1.385c-0.139-0.545-0.206-1.104-0.206-1.667
			c-0.003-0.554,0.073-1.104,0.224-1.637c0.14-0.496,0.375-0.958,0.691-1.361c0.315-0.397,0.716-0.717,1.175-0.934
			c0.531-0.242,1.111-0.36,1.696-0.346c0.576-0.016,1.146,0.098,1.672,0.334c0.446,0.207,0.836,0.517,1.137,0.902
			c0.305,0.403,0.528,0.862,0.652,1.35C38.544,38.167,38.628,38.732,38.634,39.301z M36.875,39.301c0.016-0.375,0-0.749-0.053-1.121
			c-0.058-0.326-0.168-0.644-0.328-0.934c-0.146-0.254-0.347-0.471-0.588-0.635c-0.277-0.162-0.594-0.244-0.916-0.234
			c-0.334-0.008-0.665,0.073-0.957,0.234c-0.257,0.159-0.472,0.377-0.628,0.635c-0.167,0.288-0.28,0.604-0.341,0.934
			c-0.072,0.368-0.105,0.744-0.105,1.121c0,0.379,0.035,0.759,0.105,1.132c0.061,0.336,0.172,0.663,0.335,0.963
			c0.14,0.267,0.341,0.496,0.587,0.668c0.283,0.172,0.609,0.257,0.939,0.247c0.33,0.012,0.653-0.073,0.933-0.247
			c0.25-0.168,0.452-0.398,0.588-0.668c0.16-0.301,0.273-0.627,0.334-0.963c0.075-0.368,0.115-0.745,0.116-1.121L36.875,39.301z"/>
		<path fill="#B3B2B3" d="M48.213,43.461h-1.414l-3.521-5.423v5.423h-1.616v-8.216c0.11-0.023,0.22-0.04,0.329-0.047
			c0.142-0.02,0.283-0.028,0.424-0.031c0.212-0.008,0.424,0.038,0.615,0.137c0.161,0.11,0.295,0.253,0.393,0.422l3.182,5.188v-5.681
			l0.317-0.047h0.234c0.125-0.001,0.249,0.013,0.371,0.041c0.121,0.023,0.237,0.071,0.339,0.141
			c0.105,0.073,0.192,0.172,0.251,0.286c0.073,0.156,0.107,0.324,0.099,0.494L48.213,43.461z"/>
		<path fill="#B3B2B3" d="M53.166,38.437h2.648v1.32h-2.648v3.704h-1.672v-8.263h5.176c0.016,0.074,0.028,0.151,0.036,0.229
			c0,0.059,0,0.136,0,0.222c0.005,0.226-0.073,0.446-0.218,0.618c-0.215,0.189-0.502,0.279-0.786,0.246h-2.525L53.166,38.437z"/>
		<path fill="#B3B2B3" d="M59.306,35.209l0.34-0.047h0.251c0.127-0.001,0.254,0.015,0.377,0.041c0.123,0.023,0.24,0.071,0.346,0.141
			c0.113,0.071,0.205,0.172,0.27,0.288c0.073,0.154,0.11,0.322,0.105,0.493v7.336h-1.689V35.209L59.306,35.209z"/>
		<path fill="#B3B2B3" d="M70.814,39.188c0.005,0.56-0.074,1.117-0.234,1.655c-0.142,0.496-0.387,0.958-0.715,1.354
			c-0.334,0.394-0.753,0.706-1.223,0.917c-0.556,0.235-1.157,0.353-1.76,0.34h-2.624v-8.21c0.528-0.066,0.974-0.105,1.351-0.124
			c0.375-0.018,0.698,0,0.968,0c0.695-0.021,1.388,0.091,2.042,0.328c0.981,0.353,1.728,1.165,1.996,2.171
			C70.751,38.132,70.819,38.659,70.814,39.188z M69.088,39.188c0.003-0.363-0.033-0.726-0.111-1.079
			c-0.063-0.319-0.192-0.621-0.381-0.888c-0.19-0.254-0.442-0.459-0.735-0.586c-0.368-0.159-0.771-0.234-1.173-0.219
			c-0.243,0-0.487,0.013-0.739,0.036v5.681h0.675c0.412,0.015,0.823-0.058,1.203-0.216c0.3-0.123,0.56-0.326,0.752-0.587
			c0.196-0.28,0.326-0.598,0.388-0.934c0.084-0.39,0.13-0.785,0.132-1.186L69.088,39.188z"/>
		<path fill="#B3B2B3" d="M78.15,42.146c0.295-0.033,0.591,0.064,0.804,0.271c0.138,0.166,0.215,0.373,0.219,0.587
			c0,0.095,0,0.17,0,0.229c0,0.059,0,0.128,0,0.206h-5.377v-8.24h5.141c0.018,0.073,0.026,0.15,0.03,0.229c0,0.059,0,0.136,0,0.222
			c0.019,0.239-0.059,0.473-0.217,0.653c-0.242,0.167-0.536,0.241-0.827,0.211h-2.431v2.037h2.612v1.32h-2.612v2.275H78.15z"/>
		<path fill="#B3B2B3" d="M88.403,43.461H86.97l-3.521-5.423v5.423h-1.613v-8.216c0.109-0.022,0.218-0.038,0.328-0.047
			c0.14-0.02,0.282-0.028,0.424-0.031c0.213-0.01,0.427,0.036,0.616,0.137c0.16,0.11,0.295,0.253,0.393,0.422l3.182,5.188v-5.681
			l0.317-0.047h0.234c0.124-0.001,0.248,0.013,0.369,0.041c0.124,0.023,0.239,0.071,0.342,0.141
			c0.105,0.073,0.192,0.172,0.251,0.286c0.073,0.156,0.106,0.324,0.1,0.494L88.403,43.461z"/>
		<path fill="#B3B2B3" d="M97.559,42.985c-0.073,0.068-0.156,0.13-0.24,0.182c-0.141,0.094-0.293,0.168-0.452,0.224
			c-0.222,0.086-0.449,0.151-0.682,0.194c-0.301,0.055-0.608,0.08-0.915,0.075c-0.59,0.015-1.178-0.093-1.726-0.316
			c-0.454-0.203-0.855-0.51-1.173-0.892c-0.324-0.4-0.562-0.86-0.699-1.356c-0.169-0.565-0.262-1.153-0.269-1.743
			c-0.009-0.595,0.073-1.189,0.24-1.761c0.146-0.502,0.392-0.973,0.724-1.378c0.327-0.39,0.737-0.698,1.202-0.905
			c0.536-0.228,1.115-0.341,1.696-0.327c0.292-0.004,0.582,0.025,0.869,0.087c0.23,0.048,0.457,0.117,0.675,0.206
			c0.169,0.063,0.329,0.147,0.48,0.245c0.103,0.065,0.199,0.138,0.288,0.218c0.078,0.066,0.142,0.143,0.195,0.229
			c0.053,0.092,0.082,0.194,0.082,0.301c-0.008,0.18-0.074,0.353-0.188,0.492c-0.121,0.164-0.258,0.316-0.406,0.458
			c-0.1-0.099-0.211-0.199-0.334-0.305c-0.127-0.105-0.264-0.195-0.411-0.271c-0.166-0.083-0.339-0.148-0.517-0.2
			c-0.214-0.053-0.432-0.078-0.651-0.076c-0.708-0.039-1.384,0.309-1.761,0.909c-0.178,0.287-0.302,0.604-0.371,0.934
			c-0.057,0.378-0.077,0.764-0.053,1.145c0.001,0.372,0.04,0.744,0.113,1.109c0.065,0.334,0.195,0.652,0.38,0.938
			c0.183,0.271,0.427,0.495,0.711,0.651c0.335,0.175,0.712,0.26,1.09,0.247c0.215,0.003,0.429-0.028,0.634-0.087
			c0.178-0.048,0.351-0.117,0.512-0.206c0.136-0.077,0.266-0.162,0.386-0.26l0.283-0.234l0.17,0.206
			c0.069,0.084,0.128,0.172,0.183,0.264c0.06,0.087,0.109,0.176,0.152,0.271c0.037,0.075,0.058,0.159,0.059,0.246
			c0.002,0.093-0.018,0.186-0.059,0.27C97.715,42.852,97.641,42.925,97.559,42.985z"/>
		<path fill="#B3B2B3" d="M105.111,42.146c0.299-0.033,0.596,0.066,0.812,0.271c0.134,0.166,0.211,0.373,0.217,0.587
			c0,0.095,0,0.17,0,0.229c0,0.059,0,0.128,0,0.206h-5.348v-8.24h5.141c0.006,0.076,0.006,0.151,0,0.229c0,0.059,0,0.136,0,0.222
			c0.021,0.24-0.062,0.476-0.222,0.653c-0.239,0.169-0.531,0.245-0.823,0.211h-2.429v2.037h2.612v1.32h-2.612v2.275H105.111z"/>
		<path fill="#B3B2B3" d="M113.27,35.209l0.34-0.047h0.252c0.125-0.001,0.252,0.015,0.375,0.041
			c0.125,0.023,0.245,0.071,0.354,0.141c0.108,0.074,0.198,0.172,0.262,0.288c0.077,0.152,0.115,0.321,0.106,0.493v7.336h-1.69
			V35.209L113.27,35.209z"/>
		<path fill="#B3B2B3" d="M124.721,43.461h-1.432l-3.521-5.423v5.423h-1.603v-8.216c0.112-0.023,0.223-0.04,0.335-0.047
			c0.138-0.02,0.277-0.028,0.416-0.031c0.213-0.01,0.428,0.036,0.616,0.137c0.163,0.108,0.296,0.252,0.394,0.422l3.181,5.188v-5.681
			l0.324-0.047h0.227c0.125-0.001,0.251,0.013,0.371,0.041c0.122,0.021,0.238,0.069,0.339,0.141
			c0.108,0.072,0.195,0.172,0.252,0.286c0.074,0.156,0.107,0.324,0.102,0.494V43.461L124.721,43.461z"/>
		<path fill="#B3B2B3" d="M134.287,36.576h-2.578l0,0c-0.016-0.081-0.025-0.163-0.028-0.245c0-0.064,0-0.148,0-0.235
			c0.005-0.219,0.087-0.426,0.235-0.586c0.215-0.206,0.512-0.307,0.809-0.276h5.791c0.025,0.176,0.037,0.352,0.037,0.528
			c0,0.214-0.076,0.423-0.219,0.586c-0.213,0.199-0.502,0.296-0.791,0.264h-1.539v6.85h-1.695L134.287,36.576z"/>
		<path fill="#B3B2B3" d="M145.436,42.146c0.297-0.031,0.594,0.066,0.811,0.271c0.133,0.167,0.209,0.374,0.212,0.587
			c0,0.095,0,0.17,0,0.229c0.005,0.068,0.005,0.138,0,0.206h-5.334v-8.24h5.14c0,0.086,0,0.163,0.031,0.229
			c0.029,0.064,0,0.136,0,0.222c0.016,0.24-0.064,0.475-0.225,0.653c-0.239,0.168-0.534,0.244-0.828,0.211h-2.422v2.037h2.574v1.32
			h-2.609v2.275H145.436z"/>
		<path fill="#B3B2B3" d="M151.91,40.731l-1.578,2.729h-1.85l2.441-4.108l-2.17-3.915c0.166-0.077,0.338-0.142,0.515-0.191
			c0.181-0.054,0.368-0.083,0.558-0.084c0.418-0.021,0.806,0.211,0.986,0.588l1.174,2.229l1.22-2.096
			c0.12-0.227,0.283-0.427,0.483-0.587c0.197-0.127,0.433-0.188,0.668-0.176c0.154,0,0.309,0.021,0.458,0.065
			c0.152,0.047,0.3,0.105,0.439,0.182l-2.293,3.885l2.405,4.107c-0.161,0.061-0.33,0.107-0.498,0.136
			c-0.156,0.033-0.314,0.05-0.477,0.054c-0.268,0.017-0.533-0.053-0.758-0.199c-0.191-0.151-0.354-0.34-0.475-0.553L151.91,40.731z"
			/>
		<path fill="#B3B2B3" d="M159.834,36.576h-2.577l0,0c0-0.099,0-0.181,0-0.245s0-0.148,0-0.235c0.005-0.219,0.091-0.428,0.241-0.586
			c0.213-0.207,0.509-0.308,0.803-0.276h5.791c0.027,0.176,0.043,0.351,0.043,0.528c-0.002,0.214-0.082,0.424-0.223,0.586
			c-0.213,0.2-0.503,0.297-0.793,0.264h-1.584v6.85h-1.701V36.576L159.834,36.576z"/>
		<path fill="#B3B2B3" d="M166.588,35.209l0.334-0.047h0.26c0.125-0.001,0.251,0.015,0.375,0.041
			c0.123,0.023,0.242,0.071,0.346,0.141c0.111,0.071,0.206,0.172,0.27,0.288c0.072,0.154,0.107,0.324,0.101,0.493v7.336h-1.685
			V35.209L166.588,35.209z"/>
		<path fill="#B3B2B3" d="M173.244,42.088h2.4c0.166-0.005,0.333,0.02,0.491,0.071c0.118,0.041,0.226,0.109,0.313,0.199
			c0.071,0.08,0.122,0.177,0.153,0.28c0.027,0.104,0.04,0.214,0.04,0.323c0,0.083,0,0.182,0,0.293c0.009,0.067,0.009,0.134,0,0.2
			h-5.077v-8.246l0.34-0.047h0.254c0.127-0.001,0.252,0.015,0.375,0.041c0.126,0.024,0.248,0.072,0.357,0.141
			c0.113,0.071,0.207,0.172,0.271,0.288c0.078,0.152,0.114,0.322,0.106,0.493L173.244,42.088z"/>
		<path fill="#B3B2B3" d="M183.719,42.146c0.295-0.033,0.59,0.064,0.805,0.271c0.139,0.166,0.214,0.373,0.217,0.587
			c0,0.095,0,0.17,0,0.229c0,0.059,0,0.128,0,0.206h-5.334v-8.24h5.135c0.017,0.073,0.026,0.15,0.029,0.229c0,0.059,0,0.136,0,0.222
			c0.02,0.239-0.059,0.473-0.219,0.653c-0.24,0.167-0.533,0.241-0.826,0.211h-2.447v2.037h2.611v1.32h-2.611v2.275H183.719z"/>
		<path fill="#B3B2B3" d="M187.451,41.554c0.265,0.205,0.547,0.387,0.846,0.539c0.363,0.185,0.767,0.273,1.174,0.266
			c0.179-0.002,0.355-0.024,0.527-0.071c0.156-0.036,0.303-0.099,0.436-0.188c0.129-0.087,0.237-0.204,0.316-0.341
			c0.086-0.158,0.13-0.336,0.123-0.517c0.005-0.19-0.041-0.38-0.135-0.545c-0.094-0.148-0.216-0.275-0.359-0.376
			c-0.162-0.106-0.338-0.195-0.521-0.264l-0.589-0.225c-0.263-0.088-0.526-0.187-0.797-0.293c-0.26-0.104-0.503-0.244-0.723-0.415
			c-0.217-0.185-0.396-0.409-0.521-0.665c-0.146-0.316-0.219-0.666-0.205-1.015c-0.007-0.362,0.074-0.721,0.234-1.044
			c0.153-0.301,0.371-0.562,0.641-0.764c0.282-0.204,0.6-0.358,0.938-0.452c0.363-0.106,0.74-0.159,1.122-0.158
			c0.252-0.001,0.506,0.021,0.756,0.064c0.212,0.034,0.422,0.085,0.628,0.147c0.161,0.048,0.317,0.108,0.469,0.182
			c0.103,0.046,0.2,0.102,0.294,0.164c0.215,0.1,0.349,0.315,0.341,0.552c-0.013,0.143-0.056,0.28-0.13,0.403
			c-0.095,0.185-0.218,0.354-0.364,0.501c-0.243-0.189-0.51-0.348-0.791-0.47c-0.328-0.149-0.684-0.225-1.045-0.224
			c-0.153,0.004-0.304,0.017-0.452,0.041c-0.148,0.028-0.295,0.08-0.428,0.151c-0.125,0.071-0.232,0.17-0.313,0.29
			c-0.086,0.138-0.129,0.296-0.123,0.457c-0.002,0.158,0.039,0.313,0.123,0.445c0.088,0.134,0.203,0.248,0.336,0.335
			c0.149,0.104,0.313,0.187,0.48,0.252l0.589,0.225c0.263,0.099,0.526,0.204,0.802,0.321c0.266,0.11,0.516,0.257,0.74,0.436
			c0.506,0.401,0.787,1.026,0.752,1.671c0.012,0.404-0.068,0.805-0.229,1.174c-0.147,0.327-0.363,0.615-0.635,0.845
			c-0.289,0.237-0.622,0.413-0.982,0.517c-0.402,0.12-0.824,0.177-1.247,0.17c-0.487,0.015-0.971-0.043-1.438-0.175
			c-0.275-0.081-0.545-0.191-0.797-0.329c-0.098-0.064-0.178-0.143-0.248-0.235c-0.064-0.087-0.096-0.195-0.094-0.305
			c0.01-0.18,0.066-0.354,0.166-0.505C187.216,41.929,187.328,41.738,187.451,41.554z"/>
		<path fill="#B3B2B3" d="M40.549,16.188c0.005,1.519-0.192,3.03-0.586,4.496c-0.331,1.338-0.93,2.593-1.761,3.692
			c-0.825,1.07-1.89,1.935-3.11,2.519c-1.449,0.646-3.026,0.962-4.613,0.92c-1.559,0.044-3.106-0.276-4.518-0.939
			c-1.205-0.59-2.254-1.456-3.058-2.528c-0.814-1.106-1.402-2.359-1.731-3.691c-0.375-1.45-0.555-2.94-0.541-4.437
			c0-1.474,0.2-2.94,0.588-4.361c0.383-1.313,1.018-2.54,1.872-3.61c0.848-1.054,1.927-1.902,3.153-2.476
			c2.862-1.227,6.1-1.237,8.972-0.03c1.19,0.55,2.234,1.372,3.047,2.4c0.813,1.074,1.397,2.303,1.725,3.609
			C40.374,13.198,40.565,14.689,40.549,16.188z M35.918,16.219c0.008-1.003-0.081-2.003-0.263-2.988
			c-0.143-0.874-0.441-1.715-0.882-2.482c-0.394-0.678-0.94-1.256-1.595-1.69c-0.738-0.438-1.586-0.654-2.441-0.622
			c-0.891-0.039-1.774,0.177-2.546,0.622c-0.69,0.412-1.259,0.994-1.657,1.69c-0.454,0.767-0.773,1.605-0.937,2.482
			c-0.191,0.985-0.288,1.985-0.289,2.988c0.003,1.013,0.1,2.024,0.289,3.022c0.164,0.894,0.468,1.756,0.896,2.559
			c0.4,0.711,0.966,1.314,1.651,1.76c0.748,0.455,1.611,0.687,2.486,0.67c0.881,0.021,1.75-0.21,2.5-0.67
			c0.687-0.438,1.25-1.043,1.633-1.76c0.431-0.8,0.728-1.664,0.879-2.559C35.833,18.245,35.926,17.231,35.918,16.219z"/>
		<path fill="#B3B2B3" d="M55.99,23.778c1.045,0,1.761,0.222,2.153,0.708c0.375,0.454,0.583,1.022,0.588,1.608
			c0.013,0.195,0.013,0.393,0,0.588c0,0.164,0,0.34-0.036,0.539H44.452V5.248h13.687c0.046,0.203,0.074,0.409,0.082,0.617
			c0.021,0.194,0.03,0.391,0.029,0.586c0.064,0.645-0.149,1.284-0.588,1.761c-0.37,0.381-1.12,0.587-2.184,0.587h-6.53v5.428h6.983
			v3.523h-6.983v6.074L55.99,23.778z"/>
		<path fill="#B3B2B3" d="M61.672,5.279c0.311-0.042,0.586-0.084,0.902-0.112c0.317-0.029,0.522-0.041,0.67-0.041
			c0.338-0.007,0.678,0.027,1.009,0.099c0.334,0.063,0.655,0.187,0.945,0.365c0.289,0.207,0.53,0.472,0.711,0.78
			c0.185,0.414,0.272,0.867,0.252,1.32v7.936c0.049-0.503,0.2-0.989,0.44-1.434c0.262-0.486,0.569-0.947,0.915-1.378l4.521-5.923
			c0.396-0.568,0.918-1.038,1.524-1.379c0.489-0.257,1.033-0.391,1.584-0.387c0.538-0.014,1.068,0.08,1.568,0.275
			c0.416,0.159,0.795,0.4,1.115,0.709l-7.259,9.691l8.161,11.052c-0.774,0.487-1.669,0.752-2.586,0.761
			c-1.383,0.041-2.698-0.597-3.522-1.706l-4.818-6.245c-0.424-0.515-0.784-1.078-1.073-1.678c-0.319-0.552-0.508-1.168-0.553-1.803
			v11.062h-4.488L61.672,5.279z"/>
		<path fill="#B3B2B3" d="M98.592,16.188c0.005,1.517-0.182,3.027-0.559,4.496c-0.337,1.334-0.935,2.589-1.76,3.692
			c-0.824,1.074-1.892,1.938-3.115,2.519c-1.441,0.647-3.012,0.964-4.592,0.92c-1.565,0.048-3.123-0.273-4.541-0.939
			c-1.208-0.582-2.258-1.451-3.059-2.528c-0.807-1.107-1.39-2.362-1.719-3.691c-0.375-1.45-0.561-2.94-0.551-4.437
			c-0.01-1.475,0.189-2.943,0.586-4.361c0.366-1.321,0.993-2.557,1.843-3.633c0.849-1.058,1.926-1.903,3.152-2.477
			c2.864-1.227,6.105-1.236,8.978-0.029c1.189,0.548,2.229,1.37,3.036,2.4c0.82,1.073,1.42,2.301,1.76,3.608
			C98.427,13.185,98.61,14.684,98.592,16.188z M93.961,16.219c0.006-1.003-0.082-2.003-0.265-2.988
			c-0.151-0.873-0.45-1.711-0.886-2.482c-0.396-0.682-0.945-1.261-1.609-1.69c-0.729-0.439-1.577-0.656-2.431-0.622
			c-0.89-0.036-1.776,0.181-2.552,0.622c-0.683,0.424-1.258,1.004-1.678,1.69c-0.448,0.767-0.757,1.608-0.91,2.482
			c-0.197,0.983-0.299,1.983-0.3,2.988c0.003,1.014,0.103,2.026,0.3,3.022c0.15,0.896,0.455,1.763,0.898,2.559
			c0.398,0.715,0.967,1.318,1.655,1.76c0.747,0.461,1.611,0.692,2.488,0.67c0.882,0.016,1.75-0.217,2.507-0.67
			c0.676-0.443,1.229-1.048,1.615-1.76c0.422-0.804,0.727-1.667,0.898-2.559C93.878,18.243,93.968,17.231,93.961,16.219z"/>
		<path fill="#B3B2B3" d="M104.684,19.77c-1.555,0-2.347-0.688-2.347-2.067c-0.005-0.471,0.028-0.942,0.099-1.408h8.217
			c0.607-0.024,1.211,0.098,1.763,0.357c0.451,0.24,0.685,0.805,0.685,1.702v0.698c-0.037,0.236-0.057,0.476-0.063,0.718H104.684
			L104.684,19.77z"/>
		<path fill="#B3B2B3" d="M119.034,8.928h-6.862l0,0c-0.03-0.269-0.052-0.481-0.071-0.662c-0.018-0.182,0-0.37,0-0.629
			c0.005-0.603,0.236-1.183,0.646-1.625c0.577-0.545,1.364-0.813,2.153-0.732h15.435c0.07,0.465,0.104,0.936,0.102,1.407
			c0.003,0.576-0.205,1.134-0.587,1.567c-0.564,0.524-1.328,0.78-2.096,0.704h-4.143v18.323h-4.55L119.034,8.928z"/>
		<path fill="#B3B2B3" d="M144.433,23.778c1.058,0,1.762,0.222,2.153,0.708c0.37,0.456,0.577,1.022,0.589,1.608
			c0,0.257,0,0.451,0,0.588c0,0.136-0.03,0.34-0.048,0.539h-14.268V5.248h13.712c0.049,0.203,0.079,0.409,0.092,0.617
			c0,0.151,0,0.353,0,0.586c0.055,0.644-0.157,1.28-0.587,1.761c-0.399,0.381-1.143,0.587-2.218,0.587h-6.457v5.428h6.961v3.523
			h-6.954v6.074L144.433,23.778z"/>
		<path fill="#B3B2B3" d="M157.328,19.985l-4.191,7.255h-4.918l6.492-10.958l-5.793-10.436c0.447-0.2,0.908-0.372,1.379-0.515
			c0.482-0.138,0.982-0.206,1.484-0.206c1.119-0.053,2.158,0.581,2.623,1.602l3.199,5.945l3.238-5.588
			c0.32-0.583,0.754-1.098,1.279-1.508c0.527-0.33,1.141-0.488,1.762-0.451c0.412-0.008,0.824,0.042,1.222,0.153
			c0.403,0.128,0.795,0.292,1.173,0.485l-6.097,10.342l6.396,11.021c-0.435,0.156-0.881,0.271-1.338,0.348
			c-0.409,0.084-0.825,0.133-1.243,0.146c-0.716,0.041-1.425-0.142-2.032-0.522c-0.514-0.402-0.938-0.907-1.244-1.484
			L157.328,19.985z"/>
		<path fill="#B3B2B3" d="M183.092,7.526c4.863,0,8.803,3.941,8.803,8.803c0,4.862-3.939,8.803-8.803,8.803s-8.803-3.94-8.803-8.803
			C174.289,11.468,178.229,7.526,183.092,7.526L183.092,7.526L183.092,7.526z M183.092,4.739
			c-6.412-0.004-11.612,5.191-11.615,11.602c-0.002,6.41,5.191,11.611,11.602,11.615c6.414,0.003,11.611-5.192,11.616-11.603
			c0-0.005,0-0.008,0-0.013c0.003-6.41-5.191-11.612-11.603-11.615l0,0V4.739z"/>
		<path fill="#B3B2B3" d="M187.306,13.683c0.008,0.425-0.048,0.847-0.165,1.255c-0.103,0.348-0.268,0.672-0.486,0.958
			c-0.197,0.26-0.433,0.49-0.698,0.681c-0.246,0.177-0.517,0.314-0.806,0.41l2.817,4.696c-0.22,0.091-0.447,0.166-0.681,0.216
			c-0.229,0.048-0.461,0.072-0.692,0.077c-0.368,0.016-0.731-0.081-1.044-0.276c-0.328-0.222-0.597-0.522-0.781-0.874l-1.924-3.293
			h-0.939V21.8h-2.349V10.496c0.517-0.054,1.032-0.089,1.562-0.123c0.527-0.035,1.011-0.035,1.443-0.035
			c1.644,0,2.846,0.271,3.599,0.833C186.943,11.76,187.375,12.706,187.306,13.683z M184.875,13.905
			c0.059-0.558-0.147-1.111-0.557-1.497c-0.447-0.308-0.984-0.458-1.527-0.427h-0.521c-0.158,0-0.276,0-0.382,0.041v3.914h0.799
			c0.575,0.027,1.144-0.147,1.602-0.494C184.705,15.045,184.92,14.48,184.875,13.905L184.875,13.905z"/>
	</g>
	<g>
		<path fill="#B3B2B3" d="M224.691,84.163c-1.805,0-3.283-1.414-3.365-3.218c-0.004-0.097-0.004-0.195,0-0.293
			c0.005-1.624,1.191-3.394,3.281-4.909c-0.274-0.358-0.537-0.701-0.779-1.044c-0.881,0.207-1.887,0.237-2.896,0.085
			c-0.952-0.144-1.902-0.201-2.816-0.178c0.19,1.745,0.233,3.528-0.624,5.023c-0.6,1.04-1.719,1.687-2.92,1.687
			c-0.587,0-1.166-0.156-1.679-0.451c-0.779-0.448-1.337-1.174-1.569-2.044c-0.233-0.869-0.113-1.774,0.333-2.555
			c0.815-1.407,2.729-2.35,5.298-2.621c-0.059-0.45-0.114-0.881-0.155-1.3c-0.886-0.264-1.771-0.737-2.585-1.382
			c-0.762-0.608-1.551-1.133-2.351-1.567c-0.709,1.61-1.566,3.182-3.06,4.046c-0.514,0.296-1.096,0.449-1.684,0.449
			c-1.202,0-2.322-0.644-2.92-1.684c-0.932-1.611-0.378-3.676,1.231-4.605c0.607-0.348,1.343-0.527,2.183-0.527
			c1.113,0,2.391,0.313,3.725,0.908c0.176-0.418,0.342-0.82,0.516-1.203c-0.627-0.669-1.148-1.516-1.527-2.47
			c-0.357-0.906-0.777-1.755-1.256-2.533c-1.416,1.039-2.941,1.968-4.67,1.968c-1.855,0-3.365-1.51-3.365-3.365
			c0-1.854,1.51-3.364,3.365-3.364c1.627,0,3.402,1.189,4.922,3.278c0.36-0.276,0.705-0.539,1.047-0.781
			c-0.21-0.897-0.242-1.898-0.092-2.916c0.146-0.966,0.207-1.913,0.182-2.826c-0.585,0.065-1.192,0.114-1.799,0.114
			c-1.307,0-2.362-0.24-3.229-0.736c-1.603-0.945-2.137-3.013-1.193-4.61c0.603-1.022,1.714-1.656,2.9-1.656
			c0.575,0,1.147,0.15,1.653,0.437c1.415,0.816,2.358,2.728,2.63,5.291c0.453-0.058,0.887-0.114,1.31-0.154
			c0.263-0.88,0.731-1.765,1.366-2.58c0.605-0.767,1.131-1.554,1.563-2.354c-1.603-0.707-3.168-1.565-4.033-3.062
			c-0.939-1.596-0.404-3.661,1.193-4.603c0.519-0.305,1.106-0.466,1.705-0.466c1.188,0,2.3,0.636,2.902,1.659l0.027,0.048
			c0.813,1.41,0.672,3.54-0.381,5.898c0.426,0.177,0.831,0.347,1.219,0.524c0.672-0.625,1.521-1.148,2.479-1.525l0.703-0.277v0.009
			c0.641-0.288,1.248-0.608,1.817-0.959c-1.039-1.417-1.97-2.944-1.974-4.67c-0.077-1.852,1.361-3.423,3.215-3.508
			c1.874-0.085,3.434,1.358,3.518,3.213c0.007,0.099,0.007,0.197,0.002,0.295c-0.007,1.628-1.191,3.399-3.274,4.919
			c0.274,0.363,0.536,0.709,0.78,1.051c0.879-0.2,1.878-0.229,2.885-0.078c0.953,0.142,1.906,0.201,2.821,0.173
			c-0.194-1.751-0.238-3.541,0.622-5.037c0.595-1.051,1.717-1.704,2.929-1.704c0.576,0,1.147,0.15,1.653,0.436
			c1.615,0.914,2.186,2.97,1.271,4.585l-0.03,0.05c-0.813,1.407-2.726,2.354-5.285,2.63c0.059,0.448,0.112,0.879,0.154,1.295
			c0.882,0.264,1.77,0.731,2.586,1.368c0.766,0.606,1.552,1.132,2.353,1.564c0.703-1.602,1.56-3.165,3.055-4.03
			c0.533-0.329,1.143-0.504,1.768-0.504c1.172,0,2.24,0.595,2.858,1.59c0.475,0.762,0.623,1.665,0.42,2.539
			c-0.205,0.876-0.739,1.619-1.503,2.094c-0.06,0.038-0.121,0.073-0.186,0.107c-0.603,0.348-1.332,0.523-2.17,0.523
			c-1.109,0-2.386-0.313-3.719-0.907v0.002c-0.176,0.422-0.344,0.824-0.518,1.21c0.625,0.67,1.15,1.519,1.525,2.474
			c0.359,0.905,0.78,1.754,1.259,2.53c1.416-1.039,2.941-1.966,4.667-1.966c1.855,0,3.366,1.508,3.366,3.363
			s-1.511,3.364-3.366,3.364c-1.627,0-3.4-1.187-4.919-3.277c-0.358,0.275-0.703,0.537-1.046,0.781
			c0.207,0.886,0.238,1.875,0.088,2.889c-0.144,0.961-0.204,1.909-0.179,2.82c0.585-0.066,1.193-0.115,1.8-0.115
			c1.299,0,2.348,0.238,3.209,0.731c0.794,0.418,1.378,1.118,1.646,1.974c0.27,0.857,0.189,1.77-0.227,2.568
			c-0.584,1.117-1.729,1.812-2.991,1.812c-0.539,0-1.075-0.133-1.558-0.384c-0.076-0.041-0.153-0.083-0.227-0.131
			c-1.406-0.816-2.347-2.729-2.615-5.295c-0.453,0.059-0.889,0.115-1.311,0.155c-0.266,0.883-0.733,1.769-1.369,2.584
			c-0.605,0.764-1.131,1.555-1.564,2.355c1.605,0.706,3.174,1.563,4.035,3.055c0.931,1.605,0.379,3.668-1.229,4.599
			c-0.514,0.294-1.094,0.452-1.682,0.452c-1.199,0-2.316-0.644-2.916-1.682c-0.815-1.409-0.674-3.539,0.378-5.899
			c-0.419-0.176-0.821-0.345-1.204-0.52c-0.67,0.628-1.518,1.152-2.475,1.531c-0.906,0.356-1.754,0.776-2.529,1.254
			c1.035,1.412,1.963,2.935,1.966,4.655c0.078,1.851-1.36,3.423-3.214,3.507C224.795,84.162,224.742,84.163,224.691,84.163z
			 M225.23,76.571c-1.805,1.308-2.869,2.815-2.869,4.094l-0.001,0.021c-0.003,0.071-0.003,0.142,0,0.211
			c0.058,1.287,1.144,2.285,2.438,2.229c1.285-0.06,2.284-1.152,2.227-2.439v-0.021C227.025,79.224,226.178,77.857,225.23,76.571z
			 M217.08,74.674c-2.213,0.232-3.887,1.005-4.525,2.112c-0.311,0.537-0.393,1.166-0.23,1.768c0.161,0.601,0.547,1.104,1.086,1.414
			c0.354,0.205,0.757,0.314,1.162,0.314c0.832,0,1.607-0.449,2.022-1.169C217.31,77.867,217.259,76.259,217.08,74.674z
			 M233.256,74.137c-0.908,2.033-1.074,3.871-0.436,4.977c0.416,0.718,1.189,1.163,2.02,1.163c0.408,0,0.811-0.107,1.164-0.313
			c1.113-0.644,1.494-2.071,0.85-3.184C236.135,75.536,234.719,74.776,233.256,74.137z M225.465,75.158l0.006,0.007
			c0.849-0.528,1.781-0.994,2.773-1.386c0.701-0.278,1.333-0.642,1.857-1.071c-0.593-0.343-1.187-0.789-1.539-1.393
			c-0.037-0.058-0.072-0.119-0.104-0.181c-0.531-1.039-0.117-2.319,0.923-2.851c0.299-0.151,0.632-0.232,0.964-0.232
			c0.797,0,1.517,0.437,1.883,1.143c0.539,0.947,0.383,2.109-0.409,3.205c0.284,0.126,0.585,0.252,0.894,0.381
			c0.014,0.005,0.025,0.01,0.037,0.016l0.002-0.002l0.007,0.004c0.472-0.885,1.045-1.752,1.708-2.588
			c0.468-0.598,0.832-1.24,1.071-1.882c-0.862,0-1.509-0.139-2.029-0.438c-0.061-0.031-0.12-0.067-0.178-0.104
			c-0.474-0.309-0.8-0.782-0.918-1.338c-0.118-0.553-0.013-1.12,0.296-1.595c0.394-0.604,1.059-0.964,1.778-0.964
			c0.407,0,0.802,0.115,1.145,0.337c0.931,0.554,1.369,1.639,1.233,2.979c0.314-0.034,0.642-0.076,0.979-0.121
			c0.012,0,0.025-0.002,0.037-0.005v-0.001l0.008-0.002c-0.034-1.001,0.03-2.04,0.188-3.098c0.108-0.739,0.108-1.462,0.003-2.124
			c-0.6,0.347-1.294,0.64-1.998,0.64c-1.165-0.001-2.115-0.949-2.116-2.114c-0.002-1.169,0.947-2.123,2.116-2.124
			c1.103,0,2.036,0.719,2.591,1.955c0.249-0.182,0.502-0.376,0.767-0.577c0.011-0.009,0.022-0.017,0.034-0.025v-0.001l0.004-0.006
			c-0.528-0.85-0.995-1.779-1.388-2.774c-0.276-0.7-0.64-1.333-1.068-1.856c-0.343,0.597-0.794,1.194-1.401,1.545
			c-0.322,0.186-0.688,0.285-1.06,0.285c-0.756,0-1.46-0.406-1.835-1.061c-0.285-0.491-0.36-1.063-0.214-1.608
			c0.146-0.548,0.497-1.006,0.989-1.288c0.365-0.214,0.772-0.322,1.205-0.322c0.654,0,1.351,0.256,2.008,0.73
			c0.125-0.284,0.248-0.58,0.375-0.887c0.008-0.018,0.015-0.033,0.021-0.052l0,0l0.002-0.008c-0.883-0.47-1.75-1.042-2.586-1.707
			c-0.6-0.47-1.24-0.832-1.884-1.069c0,0.688-0.091,1.428-0.443,2.037c-0.376,0.654-1.079,1.061-1.835,1.061
			c-0.369,0-0.734-0.098-1.055-0.283c-0.489-0.282-0.84-0.738-0.986-1.283c-0.146-0.548-0.072-1.117,0.209-1.607
			c0.488-0.822,1.385-1.272,2.526-1.272c0.15,0,0.302,0.008,0.46,0.022c-0.035-0.314-0.077-0.64-0.121-0.977
			c0-0.007-0.003-0.016-0.003-0.021h-0.001l-0.002-0.008c-1.006,0.034-2.051-0.027-3.097-0.185
			c-0.733-0.107-1.466-0.109-2.121-0.008c0.341,0.591,0.628,1.27,0.632,1.965c0.004,0.078,0.004,0.159-0.002,0.239
			c-0.069,1.159-1.072,2.057-2.244,1.987c-1.161-0.069-2.049-1.068-1.988-2.227c0.006-1.093,0.725-2.019,1.957-2.563
			c-0.184-0.251-0.381-0.509-0.586-0.774c-0.003-0.009-0.011-0.017-0.016-0.025l-0.002,0.001l-0.005-0.006
			c-0.849,0.529-1.775,0.995-2.765,1.387l-0.615,0.243c-0.459,0.229-0.878,0.498-1.246,0.795c0.59,0.342,1.181,0.788,1.533,1.39
			c0.025,0.041,0.05,0.085,0.073,0.129c0.263,0.5,0.317,1.073,0.149,1.614s-0.536,0.985-1.037,1.248
			c-0.303,0.16-0.645,0.246-0.986,0.246c-0.786,0-1.502-0.431-1.871-1.124c-0.543-0.945-0.383-2.105,0.415-3.198
			c-0.286-0.125-0.584-0.251-0.894-0.38c-0.016-0.006-0.031-0.013-0.049-0.019v0.001l-0.006-0.004
			c-0.471,0.882-1.045,1.75-1.707,2.586c-0.468,0.6-0.83,1.24-1.068,1.879l0,0c0.861,0,1.506,0.141,2.027,0.438
			c0.043,0.023,0.084,0.046,0.127,0.072c0.99,0.621,1.291,1.931,0.673,2.922c-0.391,0.624-1.063,0.997-1.799,0.997
			c-0.397,0-0.785-0.112-1.122-0.323c-0.928-0.55-1.367-1.638-1.234-2.981c-0.313,0.035-0.64,0.076-0.976,0.119
			c-0.013,0.003-0.026,0.004-0.04,0.006v0.002h-0.008c0.033,1.003-0.029,2.046-0.189,3.103c-0.111,0.75-0.111,1.481,0.002,2.152
			c0.596-0.346,1.287-0.639,1.993-0.639c1.165,0.001,2.114,0.95,2.116,2.116c0.001,0.566-0.219,1.098-0.617,1.5
			c-0.401,0.401-0.932,0.622-1.499,0.623c-1.096,0-2.03-0.721-2.585-1.959c-0.249,0.183-0.504,0.378-0.768,0.58
			c-0.012,0.008-0.025,0.018-0.038,0.027l0.001,0.002l-0.006,0.004c0.532,0.849,0.996,1.78,1.387,2.774
			c0.278,0.7,0.643,1.332,1.072,1.856c0.342-0.598,0.793-1.194,1.406-1.545c0.318-0.187,0.686-0.284,1.055-0.284
			c0.754,0,1.457,0.407,1.834,1.061c0.283,0.489,0.357,1.061,0.211,1.604c-0.146,0.546-0.498,1.003-0.988,1.285
			c-0.367,0.214-0.773,0.323-1.207,0.323c-0.654,0-1.349-0.258-2.005-0.729c-0.126,0.288-0.252,0.59-0.382,0.9
			c-0.004,0.012-0.008,0.021-0.012,0.03h0.001l-0.005,0.01c0.885,0.472,1.754,1.045,2.589,1.711
			c0.597,0.476,1.237,0.842,1.878,1.081c-0.002-0.691,0.09-1.438,0.443-2.049c0.378-0.654,1.082-1.063,1.838-1.063
			c0.369,0,0.736,0.1,1.061,0.287c1.011,0.582,1.359,1.882,0.775,2.894c-0.492,0.827-1.393,1.278-2.541,1.278
			c-0.147,0-0.296-0.008-0.45-0.022c0.034,0.313,0.075,0.636,0.12,0.969c0,0.014,0.002,0.026,0.006,0.038l0,0v0.009
			c1.006-0.033,2.05,0.03,3.098,0.187c0.736,0.111,1.471,0.111,2.129,0.006c-0.347-0.601-0.641-1.294-0.641-2.001v-0.029
			c0.066-1.069,0.921-1.925,1.988-1.99c1.178-0.065,2.176,0.829,2.245,1.99v0.029c0,1.102-0.716,2.038-1.95,2.592
			c0.184,0.249,0.379,0.505,0.58,0.771c0.008,0.01,0.016,0.021,0.025,0.032V75.158z M223.611,71.784c0.005,0.464,0.207,1,0.647,1.7
			c0.949-0.372,1.507-0.992,1.515-1.7c-0.043-0.588-0.551-1.037-1.146-1.003C224.086,70.814,223.651,71.244,223.611,71.784z
			 M238.988,67.986c0.23,2.216,1.005,3.892,2.111,4.529l0.018,0.01c0.053,0.033,0.109,0.065,0.164,0.094
			c0.338,0.178,0.7,0.267,1.077,0.267c0.874,0,1.67-0.481,2.071-1.255c0.289-0.553,0.345-1.186,0.159-1.78
			c-0.187-0.596-0.595-1.08-1.147-1.369l-0.019-0.01c-0.7-0.404-1.586-0.601-2.702-0.601
			C240.146,67.871,239.558,67.922,238.988,67.986z M207.615,68.112c-0.658,0-1.217,0.131-1.664,0.388
			c-1.115,0.645-1.498,2.074-0.855,3.189c0.417,0.721,1.191,1.169,2.025,1.169c0.407,0,0.81-0.109,1.166-0.313
			c1.246-0.722,2.006-2.144,2.648-3.607C209.729,68.395,208.589,68.112,207.615,68.112z M230.346,69.088
			c-0.172,0-0.338,0.038-0.492,0.118c-0.533,0.271-0.744,0.926-0.472,1.459c0.016,0.033,0.035,0.065,0.057,0.098l0.013,0.023
			c0.234,0.403,0.676,0.768,1.412,1.158c0.646-0.806,0.818-1.628,0.461-2.243l-0.012-0.024
			C231.127,69.313,230.756,69.088,230.346,69.088z M217.781,71.505c0.183,0.028,0.359,0.041,0.533,0.041
			c0.543,0,1.269-0.134,1.646-0.767c0.296-0.513,0.12-1.176-0.399-1.476c-0.165-0.094-0.352-0.146-0.542-0.146
			c-0.388,0-0.747,0.207-0.94,0.543C217.845,70.106,217.75,70.672,217.781,71.505z M234.487,64.925
			c-0.369,0-0.709,0.184-0.911,0.494c-0.157,0.241-0.211,0.53-0.15,0.813c0.061,0.285,0.227,0.527,0.471,0.686
			c0.031,0.019,0.063,0.039,0.095,0.056l0.026,0.014c0.4,0.232,0.977,0.329,1.793,0.301c0.152-1.019-0.104-1.816-0.713-2.177
			l-0.02-0.012C234.901,64.985,234.697,64.925,234.487,64.925z M213.123,66.547c0.797,0.634,1.624,0.82,2.24,0.463
			c0.252-0.144,0.432-0.376,0.505-0.655c0.075-0.279,0.036-0.571-0.108-0.82c-0.191-0.333-0.551-0.543-0.938-0.543
			c-0.188,0-0.373,0.052-0.539,0.146C213.88,65.371,213.516,65.812,213.123,66.547z M204.402,58.052
			c-1.285,0-2.329,1.045-2.329,2.328c0,1.284,1.044,2.328,2.329,2.328c1.441,0,2.809-0.846,4.096-1.792
			C207.189,59.114,205.681,58.052,204.402,58.052z M240.885,59.839c1.308,1.804,2.817,2.863,4.094,2.863
			c1.284,0,2.328-1.043,2.328-2.327c0-1.283-1.044-2.329-2.328-2.329C243.539,58.046,242.172,58.894,240.885,59.839z M211.587,59.94
			c0.378,0.963,1.001,1.524,1.713,1.524c0.288-0.001,0.56-0.114,0.764-0.318c0.206-0.204,0.317-0.478,0.317-0.768
			c-0.002-0.596-0.488-1.081-1.083-1.083C212.832,59.296,212.295,59.497,211.587,59.94z M236.081,59.29
			c-0.597,0.002-1.082,0.488-1.081,1.088c0,0.595,0.486,1.079,1.083,1.082c0.466,0,1.005-0.203,1.717-0.649
			C237.426,59.852,236.797,59.29,236.081,59.29z M213.572,53.435c-0.152,1.019,0.107,1.818,0.718,2.181
			c0.184,0.114,0.382,0.173,0.584,0.173c0.378,0,0.722-0.191,0.923-0.511c0.314-0.507,0.16-1.178-0.346-1.494
			c-0.023-0.014-0.047-0.026-0.07-0.04l-0.018-0.009c-0.353-0.204-0.851-0.305-1.518-0.305
			C213.758,53.43,213.666,53.433,213.572,53.435z M234.705,53.558c-0.248,0-0.479,0.061-0.688,0.181
			c-0.252,0.146-0.432,0.38-0.507,0.66c-0.075,0.281-0.037,0.571,0.106,0.822c0.195,0.336,0.555,0.544,0.942,0.544
			c0.189,0,0.378-0.05,0.542-0.146c0.402-0.232,0.766-0.674,1.158-1.413C235.732,53.785,235.189,53.558,234.705,53.558z
			 M207.141,47.919c-0.822,0-1.591,0.438-2.01,1.146c-0.65,1.104-0.282,2.534,0.824,3.187c0.697,0.401,1.586,0.597,2.707,0.597
			c0.576,0,1.164-0.047,1.732-0.111c-0.23-2.21-1.006-3.882-2.115-4.521C207.936,48.022,207.54,47.919,207.141,47.919z
			 M238.447,51.81c1.208,0.539,2.346,0.823,3.314,0.823c0.656,0,1.215-0.131,1.659-0.388l0.019-0.01
			c0.045-0.024,0.09-0.05,0.133-0.078c0.527-0.326,0.897-0.842,1.039-1.446c0.142-0.605,0.038-1.231-0.29-1.76
			c-0.429-0.688-1.169-1.1-1.979-1.1c-0.434,0-0.858,0.121-1.228,0.351l-0.015,0.01C239.848,48.933,239.088,50.349,238.447,51.81z
			 M218.525,48.785c-0.648,0.804-0.826,1.622-0.472,2.234l0.009,0.018c0.189,0.357,0.559,0.579,0.963,0.579
			c0.177,0,0.346-0.043,0.503-0.125c0.257-0.135,0.444-0.362,0.532-0.639c0.085-0.278,0.057-0.57-0.077-0.827
			c-0.014-0.022-0.026-0.048-0.04-0.068l-0.009-0.015C219.7,49.54,219.26,49.176,218.525,48.785z M231.057,49.214
			c-0.538,0-1.258,0.133-1.631,0.76c-0.141,0.246-0.179,0.538-0.105,0.816c0.076,0.278,0.256,0.512,0.506,0.656
			c0.163,0.094,0.35,0.144,0.537,0.144c0.387,0,0.745-0.207,0.938-0.541c0.233-0.402,0.327-0.964,0.299-1.793
			C231.412,49.229,231.232,49.214,231.057,49.214z M225.128,47.278c-0.961,0.37-1.523,0.992-1.523,1.705v0.031
			c-0.035,0.597,0.421,1.112,1.017,1.148c0.596,0.033,1.111-0.424,1.148-1.017c0.003-0.044,0.003-0.089,0-0.133l-0.002-0.03
			C225.768,48.519,225.569,47.982,225.128,47.278z M214.527,40.427c-0.413,0-0.821,0.111-1.178,0.323
			c-1.107,0.65-1.479,2.082-0.826,3.188c0.725,1.252,2.141,2.012,3.601,2.652c0.908-2.033,1.073-3.87,0.435-4.979l-0.022-0.039
			C216.119,40.866,215.35,40.427,214.527,40.427z M234.817,40.455c-0.84,0-1.618,0.454-2.029,1.183
			c-0.719,1.25-0.665,2.865-0.488,4.456c2.209-0.236,3.878-1.016,4.519-2.124l0.022-0.038c0.308-0.54,0.384-1.169,0.217-1.769
			c-0.165-0.6-0.555-1.098-1.097-1.404C235.61,40.561,235.215,40.455,234.817,40.455z M224.688,37.623c-0.034,0-0.072,0-0.107,0.001
			c-1.286,0.06-2.282,1.153-2.227,2.438l0.001,0.024c0,1.445,0.85,2.815,1.799,4.105c1.803-1.313,2.864-2.824,2.864-4.105v-0.024
			c0.003-0.069,0.003-0.14,0-0.209C226.962,38.602,225.939,37.623,224.688,37.623z"/>
	</g>
	<g>
		<path fill="#F69220" d="M216.684,59.895c0.068-1.197,0.399-2.364,0.977-3.416h2.729c-0.24,1.123-0.369,2.268-0.387,3.416H216.684z
			"/>
		<path fill="#F69220" d="M220.593,65.046c0.253,0.963,0.638,1.885,1.14,2.742c-1.408-0.564-2.631-1.514-3.521-2.742H220.593z"/>
		<path fill="#F69220" d="M220.002,60.769c0.016,1.15,0.146,2.296,0.387,3.421h-2.729c-0.576-1.054-0.907-2.223-0.977-3.421H220.002
			z"/>
		<path fill="#F69220" d="M218.169,55.65c0.892-1.23,2.112-2.186,3.522-2.753c-0.505,0.86-0.889,1.789-1.141,2.753H218.169z"/>
		<path fill="#F69220" d="M227.643,52.897c1.409,0.567,2.629,1.522,3.521,2.753h-2.4c-0.246-0.967-0.631-1.894-1.14-2.753H227.643z"
			/>
		<path fill="#F69220" d="M231.18,65.046c-0.891,1.228-2.11,2.178-3.52,2.742c0.506-0.855,0.891-1.778,1.138-2.742H231.18z"/>
		<path fill="#F69220" d="M232.69,60.769c-0.066,1.199-0.399,2.369-0.981,3.421h-2.723c0.238-1.125,0.369-2.271,0.393-3.421H232.69z
			"/>
		<path fill="#F69220" d="M231.709,56.5c0.582,1.051,0.916,2.221,0.981,3.417h-3.312c-0.023-1.149-0.154-2.292-0.393-3.417H231.709z
			"/>
		<path fill="#F69220" d="M223.124,52.487c0.376-0.069,0.755-0.119,1.136-0.145v3.308h-2.786
			C221.771,54.483,222.336,53.4,223.124,52.487z"/>
		<path fill="#F69220" d="M220.846,59.895c0.026-1.148,0.16-2.293,0.398-3.416h3.016v3.416H220.846z"/>
		<path fill="#F69220" d="M221.244,64.189c-0.238-1.125-0.372-2.271-0.398-3.421h3.414v3.421H221.244z"/>
		<path fill="#F69220" d="M224.26,68.345c-0.381-0.023-0.762-0.07-1.136-0.142c-0.785-0.911-1.351-1.991-1.65-3.157h2.786V68.345z"
			/>
		<path fill="#F69220" d="M227.9,65.046c-0.302,1.166-0.864,2.246-1.649,3.157c-0.375,0.072-0.756,0.12-1.138,0.142v-3.299H227.9
			L227.9,65.046z"/>
		<path fill="#F69220" d="M228.527,60.769c-0.022,1.15-0.156,2.296-0.398,3.421h-3.016v-3.421H228.527z"/>
		<path fill="#F69220" d="M228.145,56.5c0.242,1.124,0.378,2.268,0.401,3.417h-3.417V56.5H228.145z"/>
		<path fill="#F69220" d="M225.113,52.343c0.38,0.025,0.763,0.072,1.138,0.145c0.787,0.913,1.351,1.996,1.649,3.163h-2.787V52.343z"
			/>
	</g>
	<g>
		<path fill="#F69220" d="M1.263,66.679c0.635,0.484,1.313,0.914,2.025,1.279c0.882,0.439,1.86,0.655,2.845,0.627
			c0.409,0.003,0.818-0.048,1.216-0.146c0.373-0.085,0.726-0.239,1.044-0.452c0.309-0.209,0.567-0.486,0.756-0.811
			c0.207-0.375,0.308-0.802,0.294-1.231c0.013-0.452-0.1-0.9-0.329-1.289c-0.216-0.355-0.506-0.66-0.849-0.894
			c-0.389-0.263-0.806-0.476-1.244-0.634l-1.445-0.529c-0.633-0.21-1.267-0.445-1.907-0.703c-0.624-0.244-1.204-0.579-1.725-0.997
			c-0.524-0.43-0.952-0.963-1.257-1.567c-0.675-1.576-0.648-3.364,0.077-4.919c0.364-0.711,0.888-1.327,1.532-1.803
			c0.679-0.492,1.439-0.858,2.247-1.083c0.875-0.252,1.779-0.376,2.688-0.371c0.607-0.001,1.214,0.048,1.813,0.146
			c0.509,0.088,1.011,0.205,1.504,0.353c0.383,0.117,0.76,0.261,1.126,0.429c0.241,0.11,0.472,0.241,0.692,0.393
			c0.506,0.244,0.83,0.759,0.828,1.32c-0.032,0.337-0.138,0.665-0.312,0.957c-0.233,0.431-0.523,0.825-0.869,1.174
			c-0.588-0.445-1.229-0.819-1.907-1.115c-0.785-0.354-1.634-0.534-2.496-0.528c-0.367,0.002-0.731,0.036-1.091,0.105
			c-0.355,0.064-0.701,0.185-1.021,0.353c-0.303,0.162-0.561,0.398-0.75,0.687c-0.207,0.324-0.308,0.703-0.294,1.085
			c-0.012,0.381,0.091,0.754,0.294,1.074c0.208,0.318,0.478,0.587,0.798,0.794c0.371,0.235,0.764,0.432,1.174,0.586l1.374,0.527
			c0.633,0.235,1.273,0.494,1.919,0.764c0.63,0.267,1.224,0.617,1.759,1.046c0.542,0.429,0.985,0.97,1.303,1.583
			c0.357,0.745,0.528,1.563,0.5,2.389c0.019,0.944-0.167,1.882-0.545,2.748c-0.35,0.773-0.87,1.459-1.52,2.007
			c-0.688,0.57-1.488,0.99-2.348,1.231c-0.975,0.284-1.984,0.422-3,0.411c-1.161,0.032-2.321-0.109-3.439-0.423
			c-0.66-0.192-1.297-0.455-1.903-0.781c-0.227-0.148-0.424-0.337-0.585-0.557C0.078,69.701-0.006,69.442,0,69.179
			c0.032-0.428,0.169-0.842,0.4-1.203C0.658,67.524,0.946,67.091,1.263,66.679z"/>
		<path fill="#F69220" d="M21.018,54.822h-6.174v-0.029c-0.034-0.194-0.057-0.389-0.07-0.587c0-0.151,0-0.34,0-0.557
			c0.009-0.539,0.216-1.058,0.584-1.45c0.52-0.491,1.227-0.733,1.939-0.663H31.17c0.059,0.418,0.088,0.841,0.088,1.263
			c-0.001,0.515-0.188,1.009-0.529,1.397c-0.504,0.479-1.196,0.707-1.888,0.626h-3.756v16.375h-4.073L21.018,54.822z"/>
		<path fill="#F69220" d="M42.479,71.197l-1.684-4.813h-6.819l-1.622,4.813h-4.019l6.854-19.366c0.32-0.12,0.651-0.213,0.986-0.277
			c0.453-0.091,0.913-0.137,1.375-0.135c0.241,0.004,0.482,0.024,0.722,0.06c0.274,0.041,0.538,0.126,0.786,0.252
			c0.261,0.139,0.496,0.32,0.699,0.533c0.248,0.28,0.435,0.61,0.546,0.968l6.344,17.96L42.479,71.197z M37.409,55.089l-2.687,8.36
			h5.281L37.409,55.089z"/>
		<path fill="#F69220" d="M64.447,71.197H61.02l-8.411-12.913v12.913h-3.867V51.596c0.193-0.035,0.458-0.076,0.792-0.117
			c0.334-0.039,0.669-0.057,1.004-0.06c0.512-0.025,1.023,0.085,1.478,0.323c0.388,0.254,0.713,0.597,0.945,0.997l7.628,12.354
			V51.565l0.771-0.1c0.184-0.026,0.37-0.043,0.557-0.047c0.296,0,0.593,0.028,0.885,0.088c0.292,0.059,0.569,0.176,0.816,0.341
			c0.246,0.179,0.449,0.415,0.586,0.687c0.171,0.367,0.251,0.77,0.236,1.174L64.447,71.197z"/>
		<path fill="#F69220" d="M84.078,61.066c0.009,1.332-0.18,2.657-0.558,3.933c-0.347,1.181-0.929,2.279-1.712,3.229
			c-0.799,0.943-1.803,1.692-2.935,2.189c-1.329,0.564-2.764,0.84-4.209,0.804h-6.29V51.736c1.26-0.152,2.347-0.252,3.232-0.293
			c0.887-0.042,1.667-0.061,2.348-0.061c1.669-0.046,3.33,0.218,4.901,0.782c1.188,0.442,2.258,1.161,3.116,2.094
			c0.78,0.888,1.343,1.941,1.648,3.082C83.943,58.557,84.098,59.811,84.078,61.066z M79.97,61.126
			c0.006-0.867-0.083-1.733-0.263-2.582c-0.163-0.753-0.474-1.464-0.917-2.096c-0.454-0.614-1.06-1.1-1.761-1.407
			c-0.881-0.372-1.831-0.547-2.787-0.519c-0.587,0-1.174,0.031-1.761,0.089v13.498h1.626c0.983,0.033,1.962-0.14,2.875-0.511
			c0.72-0.309,1.341-0.805,1.802-1.438c0.463-0.664,0.783-1.42,0.932-2.217c0.172-0.938,0.25-1.891,0.229-2.842L79.97,61.126z"/>
		<path fill="#F69220" d="M98.444,71.197l-1.683-4.813h-6.809l-1.619,4.813h-4.021l6.855-19.366c0.321-0.12,0.65-0.213,0.986-0.277
			c0.45-0.091,0.911-0.137,1.373-0.135c0.242,0.004,0.483,0.024,0.721,0.06c0.274,0.041,0.54,0.126,0.787,0.252
			c0.269,0.138,0.512,0.321,0.722,0.54c0.248,0.28,0.435,0.609,0.545,0.968l6.344,17.959H98.444L98.444,71.197z M93.396,55.089
			l-2.687,8.36h5.282L93.396,55.089z"/>
		<path fill="#F69220" d="M118.358,57.171c0.013,0.735-0.093,1.469-0.31,2.172c-0.188,0.591-0.474,1.146-0.846,1.643
			c-0.335,0.455-0.744,0.852-1.209,1.174c-0.428,0.301-0.894,0.549-1.384,0.733l4.872,8.099c-0.38,0.158-0.773,0.283-1.174,0.369
			c-0.386,0.084-0.779,0.128-1.173,0.129c-0.644,0.025-1.276-0.138-1.827-0.469c-0.567-0.393-1.037-0.916-1.361-1.526l-3.362-5.693
			h-1.626v7.396h-4.073V51.678c0.886-0.094,1.789-0.171,2.716-0.218c0.929-0.047,1.762-0.077,2.506-0.077
			c2.853,0,4.944,0.479,6.274,1.438C117.689,53.761,118.358,55.199,118.358,57.171z M114.104,57.552
			c0-1.231-0.325-2.097-0.975-2.595c-0.776-0.538-1.709-0.802-2.652-0.751c-0.359,0-0.663,0-0.915,0.03l-0.651,0.059v6.771h1.384
			c1.005,0.058,1.996-0.248,2.793-0.862c0.724-0.687,1.097-1.664,1.017-2.659V57.552L114.104,57.552z"/>
		<path fill="#F69220" d="M137.549,61.066c0,1.333-0.197,2.659-0.586,3.933c-0.348,1.181-0.931,2.279-1.715,3.229
			c-0.797,0.945-1.801,1.694-2.934,2.189c-1.33,0.564-2.766,0.84-4.207,0.804h-6.27V51.736c1.26-0.152,2.349-0.252,3.234-0.293
			c0.885-0.042,1.666-0.061,2.317-0.061c1.668-0.047,3.331,0.217,4.901,0.782c1.189,0.442,2.258,1.159,3.115,2.094
			c0.779,0.889,1.346,1.943,1.656,3.082C137.393,58.557,137.553,59.81,137.549,61.066z M133.41,61.126
			c0.005-0.867-0.081-1.733-0.262-2.582c-0.158-0.754-0.47-1.468-0.916-2.096c-0.455-0.615-1.061-1.102-1.76-1.407
			c-0.885-0.372-1.837-0.547-2.794-0.519c-0.589,0-1.174,0.031-1.763,0.089v13.498h1.621c0.984,0.033,1.967-0.14,2.881-0.511
			c0.718-0.31,1.339-0.806,1.802-1.438c0.464-0.666,0.778-1.422,0.929-2.217c0.182-0.937,0.27-1.888,0.262-2.842V61.126z"/>
		<path fill="#F69220" d="M153.254,71.197V56.373l-3.867,1.936c-0.276-0.37-0.547-0.769-0.811-1.202
			c-0.244-0.355-0.383-0.773-0.398-1.203c0.003-0.252,0.079-0.495,0.217-0.704c0.183-0.268,0.434-0.479,0.729-0.616l4.189-2.171
			c0.395-0.194,0.768-0.365,1.139-0.512c0.359-0.147,0.744-0.223,1.134-0.223c0.34-0.007,0.681,0.049,1.004,0.164
			c0.224,0.084,0.442,0.186,0.648,0.307v19.043L153.254,71.197z"/>
		<path fill="#F69220" d="M177.17,61.602c0,3.208-0.588,5.684-1.762,7.425c-1.174,1.74-3.008,2.608-5.505,2.605
			c-2.499,0-4.345-0.837-5.533-2.506c-1.19-1.671-1.777-4.181-1.76-7.531c-0.019-1.405,0.134-2.808,0.452-4.178
			c0.258-1.141,0.729-2.222,1.389-3.187c0.602-0.861,1.408-1.557,2.348-2.024c2.083-0.932,4.463-0.932,6.544,0
			c0.898,0.454,1.661,1.135,2.212,1.978c0.612,0.969,1.039,2.044,1.257,3.169C177.077,58.753,177.195,60.177,177.17,61.602z
			 M173.18,61.602c0.015-1.095-0.06-2.187-0.219-3.269c-0.102-0.743-0.314-1.465-0.633-2.143c-0.225-0.479-0.578-0.886-1.021-1.174
			c-0.414-0.248-0.89-0.377-1.373-0.369c-0.486-0.007-0.967,0.121-1.385,0.369c-0.453,0.286-0.816,0.692-1.051,1.174
			c-0.326,0.676-0.549,1.398-0.652,2.143c-0.16,1.082-0.23,2.174-0.216,3.269c-0.015,1.08,0.056,2.16,0.216,3.229
			c0.105,0.739,0.326,1.458,0.652,2.13c0.234,0.482,0.598,0.889,1.051,1.174c0.418,0.247,0.898,0.373,1.385,0.363
			c1.031,0.036,1.98-0.563,2.395-1.508c0.318-0.675,0.53-1.393,0.633-2.13C173.121,63.78,173.194,62.691,173.18,61.602z"/>
		<path fill="#F69220" d="M193.372,61.602c0,3.208-0.585,5.684-1.759,7.425c-1.175,1.74-3.008,2.608-5.498,2.605
			c-2.502,0-4.346-0.837-5.537-2.506c-1.188-1.671-1.785-4.181-1.788-7.531c-0.016-1.405,0.138-2.808,0.457-4.178
			c0.261-1.141,0.73-2.222,1.392-3.187c0.599-0.862,1.406-1.56,2.347-2.024c2.081-0.932,4.458-0.932,6.538,0
			c0.9,0.454,1.666,1.135,2.217,1.978c0.613,0.969,1.037,2.044,1.258,3.169C193.269,58.753,193.396,60.176,193.372,61.602z
			 M189.389,61.602c0.014-1.095-0.057-2.187-0.217-3.269c-0.105-0.743-0.322-1.464-0.64-2.143c-0.221-0.479-0.573-0.885-1.017-1.174
			c-0.414-0.248-0.89-0.377-1.373-0.369c-0.486-0.007-0.966,0.121-1.385,0.369c-0.453,0.285-0.818,0.691-1.051,1.174
			c-0.33,0.675-0.549,1.398-0.65,2.143c-0.162,1.082-0.236,2.174-0.223,3.269c-0.014,1.08,0.061,2.16,0.223,3.229
			c0.102,0.739,0.322,1.459,0.65,2.13c0.232,0.483,0.598,0.889,1.051,1.174c0.42,0.247,0.9,0.373,1.385,0.363
			c1.031,0.038,1.979-0.562,2.39-1.508c0.315-0.675,0.531-1.393,0.64-2.13c0.166-1.077,0.248-2.166,0.24-3.258H189.389
			L189.389,61.602z"/>
	</g>
</g>
</svg>
