<?xml version="1.0" encoding="utf-8"?>
<!-- Generator: Adobe Illustrator 16.0.0, SVG Export Plug-In . SVG Version: 6.00 Build 0)  -->
<!DOCTYPE svg PUBLIC "-//W3C//DTD SVG 1.1//EN" "http://www.w3.org/Graphics/SVG/1.1/DTD/svg11.dtd">
<svg version="1.1" id="Layer_1" xmlns="http://www.w3.org/2000/svg" xmlns:xlink="http://www.w3.org/1999/xlink" x="0px" y="0px"
	 width="100.287px" height="15.39px" viewBox="0 0 100.287 15.39" enable-background="new 0 0 100.287 15.39" xml:space="preserve">
<g>
	<path d="M1.145,10.829H1.13l-0.123,1.2H0V1.005h1.16v4.604h0.015c0.382-0.87,1.16-1.365,2.167-1.365
		c1.785,0,2.869,1.515,2.869,4.005c0,2.474-1.084,3.99-2.869,3.99C2.319,12.239,1.511,11.729,1.145,10.829z M5.051,8.25
		c0-1.8-0.747-2.895-1.968-2.895S1.13,6.45,1.13,8.25c0,1.785,0.732,2.88,1.953,2.88S5.051,10.034,5.051,8.25z"/>
	<path d="M7.28,13.499l0.961-0.72c0.381,0.989,1.129,1.575,2.09,1.575c1.16,0,1.908-0.855,1.908-2.311v-0.629h-0.016
		c-0.351,0.704-1.037,1.124-1.815,1.124c-1.389,0-2.213-0.915-2.213-2.489V4.455h1.159v5.595c0,0.899,0.488,1.455,1.313,1.455
		c0.977,0,1.557-0.615,1.557-1.65v-5.4h1.16l0.015,7.589c0,2.1-1.159,3.346-3.082,3.346C8.943,15.39,7.813,14.685,7.28,13.499z"/>
	<path d="M23.729,10.034h-0.016l-0.473,1.995h-3.113V0.84h3.616v5.43h0.016c0.61-1.35,2.288-2.235,4.257-2.235
		c2.808,0,4.639,1.635,4.639,4.125c0,2.49-1.831,4.11-4.639,4.11C26.033,12.27,24.339,11.399,23.729,10.034z M29.039,8.16
		c0-1.065-1.068-1.77-2.716-1.77c-1.633,0-2.717,0.705-2.717,1.77s1.084,1.755,2.717,1.755C27.971,9.915,29.039,9.225,29.039,8.16z"
		/>
	<path d="M34.396,1.725c0-1.02,0.84-1.725,1.999-1.725c1.16,0,1.999,0.705,1.999,1.725s-0.839,1.74-1.999,1.74
		C35.235,3.465,34.396,2.745,34.396,1.725z M34.595,4.29h3.601v7.74h-3.601V4.29z"/>
	<path d="M40.134,8.16c0-2.49,2.503-4.125,6.317-4.125c3.83,0,6.333,1.635,6.333,4.125c0,2.49-2.503,4.11-6.333,4.11
		C42.637,12.27,40.134,10.649,40.134,8.16z M49.167,8.16c0-1.23-1.067-2.04-2.716-2.04c-1.647,0-2.716,0.81-2.716,2.04
		s1.068,2.04,2.716,2.04C48.1,10.199,49.167,9.39,49.167,8.16z"/>
	<path d="M58.247,10.034h-0.016l-0.473,1.995h-3.113V0.84h3.616v5.43h0.016c0.61-1.35,2.288-2.235,4.257-2.235
		c2.808,0,4.639,1.635,4.639,4.125c0,2.49-1.831,4.11-4.639,4.11C60.551,12.27,58.856,11.399,58.247,10.034z M63.557,8.16
		c0-1.065-1.068-1.77-2.716-1.77c-1.633,0-2.717,0.705-2.717,1.77s1.084,1.755,2.717,1.755C62.488,9.915,63.557,9.225,63.557,8.16z"
		/>
	<path d="M69.052,0.84h3.616v11.189h-3.616V0.84z"/>
	<path d="M74.544,8.16c0-2.49,2.503-4.125,6.317-4.125c3.83,0,6.333,1.635,6.333,4.125c0,2.49-2.503,4.11-6.333,4.11
		C77.047,12.27,74.544,10.649,74.544,8.16z M83.577,8.16c0-1.23-1.067-2.04-2.716-2.04c-1.647,0-2.716,0.81-2.716,2.04
		s1.068,2.04,2.716,2.04C82.51,10.199,83.577,9.39,83.577,8.16z"/>
	<path d="M89.057,0.84h3.616v5.745h0.016L95.74,4.29h4.471l-3.982,2.94l4.059,4.8h-4.135l-2.457-3.06l-1.022,0.75v2.31h-3.616V0.84z
		"/>
</g>
</svg>
