<?xml version="1.0" encoding="utf-8"?>
<svg width="181px" height="99px" viewbox="0 0 181 99" version="1.1" xmlns:xlink="http://www.w3.org/1999/xlink" xmlns="http://www.w3.org/2000/svg">
  <defs>
    <filter id="filter_1">
      <feColorMatrix in="SourceGraphic" type="matrix" values="0 0 0 0 1 0 0 0 0 1 0 0 0 0 1 0 0 0 1 0" />
    </filter>
    <path d="M0 0L180.972 0L180.972 98.0186L0 98.0186L0 0Z" id="path_1" />
    <clipPath id="mask_1">
      <use xlink:href="#path_1" />
    </clipPath>
  </defs>
  <g id="qesa-logo-slogan-by-bioblok-new-Copy" filter="url(#filter_1)">
    <g id="qesa-logo-slogan-by-bioblok-new">
      <path d="M0 0L180.972 0L180.972 98.0186L0 98.0186L0 0Z" id="Background" fill="none" fill-rule="evenodd" stroke="none" />
      <g clip-path="url(#mask_1)">
        <g id="Group" transform="translate(0 0.9497533)">
          <g id="Group">
            <g id="Group">
              <path d="M25.7795 17.7009L25.7353 17.7009C23.9698 21.6743 19.1143 24.2344 13.4198 24.2344C5.29742 24.2344 0 19.4665 0 12.1389C0 4.81133 5.29742 0 13.4198 0C19.1143 0 24.0139 2.60383 25.824 6.62105L25.8682 6.62105L27.2367 0.750311L36.2419 0.750311L36.2419 32.798L25.7795 32.798L25.7795 17.7009L25.7795 17.7009ZM26.1328 12.1389C26.1328 9.00518 23.0425 6.93016 18.2753 6.93016C13.5081 6.93016 10.4182 9.00518 10.4182 12.1389C10.4182 15.273 13.5081 17.3039 18.2753 17.3039C23.0428 17.3039 26.1328 15.273 26.1328 12.1389L26.1328 12.1389Z" transform="translate(0 1.3247187)" id="Shape" fill="#12161B" fill-rule="evenodd" stroke="none" />
              <path d="M0 12.0951C0 4.98796 7.37209 0 17.9224 0C28.2957 0 35.1379 4.81169 35.1379 12.1393C35.1379 12.8013 35.0496 13.7727 34.8292 14.5227L10.9923 14.5227C12.1838 17.1714 16.1568 18.2312 20.4387 18.2312C24.9412 18.2312 29.4876 17.2597 31.8276 15.9357L34.6967 20.8795C31.6068 22.8662 25.7799 24.2347 19.688 24.2347C7.94613 24.2344 0 19.511 0 12.0951L0 12.0951ZM24.6318 10.0642C24.4993 7.46004 21.4977 5.69411 17.8337 5.69411C14.0815 5.69411 11.2123 7.50383 10.8149 10.0642L24.6318 10.0642L24.6318 10.0642Z" transform="translate(41.23129 1.3247187)" id="Shape" fill="#12161B" fill-rule="evenodd" stroke="none" />
              <path d="M0 4.94453C0 2.07467 2.38413 0 5.73863 0C9.09386 0 11.5214 2.07467 11.5214 4.94453C11.5214 7.85782 9.0935 9.88833 5.73863 9.88833C2.38413 9.88833 0 7.85782 0 4.94453L0 4.94453ZM0 20.3941C0 17.4805 2.38413 15.4503 5.73863 15.4503C9.09386 15.4503 11.5214 17.4805 11.5214 20.3941C11.5214 23.2636 9.0935 25.3379 5.73863 25.3379C2.38413 25.3379 0 23.2636 0 20.3941L0 20.3941Z" transform="translate(80.741516 0)" id="Shape" fill="#12161B" fill-rule="evenodd" stroke="none" />
              <path d="M0 20.6146L2.73738 15.3175C5.82658 17.2159 11.5656 18.6278 16.7302 18.6278C21.674 18.6278 23.8811 17.9213 23.8811 16.8626C23.8811 15.9357 22.2484 15.4496 19.1139 15.2292L13.4636 14.7876C5.78278 14.2577 1.8546 12.4042 1.8546 8.25451C1.8546 2.5604 8.34355 0 17.3042 0C22.1159 0 26.8841 1.01525 30.8999 3.00161L28.4282 7.8133C25.6029 6.35647 21.2773 5.25254 17.1714 5.25254C13.5081 5.25254 10.6824 5.82659 10.6824 6.97395C10.6824 7.8571 12.0506 8.21035 14.7876 8.43078L20.4379 8.91687C28.7811 9.53435 32.9746 11.4773 32.9746 16.024C32.9746 21.7181 26.3094 24.2347 17.3921 24.2347C10.8587 24.2344 3.84023 22.7775 0 20.6146L0 20.6146Z" transform="translate(95.97179 1.3247187)" id="Shape" fill="#12161B" fill-rule="evenodd" stroke="none" />
              <path d="M0 17.9662C0 13.4195 5.51713 10.3292 14.9642 9.44603L23.6607 8.65193C24.6314 8.56361 25.2058 8.21035 25.2058 7.76878C25.2058 6.66521 22.6889 5.82658 18.849 5.82658C13.3308 5.82658 7.15058 7.59215 2.82427 10.3737L0.0872387 4.9438C4.50187 1.94219 11.6535 0 18.849 0C28.8687 0 35.4905 3.17824 35.4905 8.7844L35.4905 16.4211C35.4905 17.5246 36.2408 18.2312 37.6093 18.2312C38.537 18.2312 39.5077 17.8779 40.2584 17.3042L42.1568 21.9393C40.5671 23.3961 37.5214 24.2347 33.9895 24.2347C29.0019 24.2347 25.735 22.2035 25.25 18.761L25.2062 18.3195L25.1617 18.3195C22.9983 21.9834 17.8783 24.2347 11.4773 24.2347C4.23729 24.2347 0 21.9393 0 17.9662L0 17.9662ZM25.0288 13.5078L25.0288 13.2873L15.67 14.126C12.271 14.3909 10.4616 15.0529 10.4616 16.2448C10.4616 17.3929 12.0944 18.0545 15.1847 18.0545C21.0999 18.0545 25.0288 16.1561 25.0288 13.5078L25.0288 13.5078Z" transform="translate(132.65703 1.3243543)" id="Shape" fill="#12161B" fill-rule="evenodd" stroke="none" />
            </g>
          </g>
          <g id="Group" transform="translate(0 60.12263)">
            <path d="M0 4.08129C0 1.61463 1.59943 0 4.02157 0C6.45818 0 8.05797 1.61463 8.05797 4.08129C8.05797 6.5331 6.45854 8.14737 4.02157 8.14737C1.59943 8.14737 0 6.5331 0 4.08129L0 4.08129ZM6.90699 4.08129C6.90699 2.24225 5.77085 1.04602 4.02157 1.04602C2.27229 1.04602 1.13615 2.24224 1.13615 4.08129C1.13615 5.91997 2.27229 7.11583 4.02157 7.11583C5.77085 7.11583 6.90699 5.91997 6.90699 4.08129L6.90699 4.08129Z" transform="translate(0 3.364634)" id="Shape" fill="#12161B" fill-rule="evenodd" stroke="none" />
            <path d="M6.84727 2.9741L6.84727 7.84877L5.69592 7.84877L5.69592 3.0939C5.69592 1.80864 4.93367 0.986301 3.73744 0.986301C2.22741 0.986301 1.13614 2.04825 1.13614 3.5876L1.13614 7.84877L0 7.84877L0 0.298968L1.03154 0.298968L1.13614 1.41991L1.15135 1.41991C1.79416 0.508173 2.73594 0 4.05161 0C5.78569 -0.000358984 6.84727 1.10574 6.84727 2.9741L6.84727 2.9741Z" transform="translate(10.750842 3.364634)" id="Shape" fill="#12161B" fill-rule="evenodd" stroke="none" />
            <path d="M0 3.9908C0 1.67436 1.61463 0 3.85688 0C6.06945 0 7.51976 1.67436 7.54944 4.00637C7.54944 4.14101 7.54944 4.30533 7.53424 4.45481L1.18066 4.45481C1.34535 6.02421 2.55605 7.11583 4.18553 7.11583C5.36655 7.11583 6.36805 6.5027 6.78682 5.68072L7.77348 6.08393C7.28015 7.29536 5.85988 8.14738 4.17032 8.14738C1.76376 8.14737 0 6.3981 0 3.9908L0 3.9908ZM6.33837 3.45259C6.18888 1.91288 5.21706 1.04602 3.84167 1.04602C2.4366 1.04602 1.40506 2.01748 1.1955 3.45259L6.33837 3.45259L6.33837 3.45259Z" transform="translate(20.216055 3.364634)" id="Shape" fill="#12161B" fill-rule="evenodd" stroke="none" />
            <path d="M1.1213 9.68708L1.1061 9.68708L0.98666 10.9883L0 10.9883L0 0L1.13614 0L1.13614 4.70962L1.15098 4.70962C1.80864 3.72187 2.82534 3.13951 4.08129 3.13951C6.27902 3.13951 7.90849 4.85838 7.90849 7.22079C7.90849 9.56764 6.27902 11.2869 4.06645 11.2869C2.79566 11.2869 1.76412 10.6893 1.1213 9.68708L1.1213 9.68708ZM6.75751 7.22079C6.75751 5.50119 5.57648 4.18553 3.9318 4.18553C2.30233 4.18553 1.1061 5.50119 1.1061 7.22079C1.1061 8.92447 2.30233 10.2553 3.9318 10.2553C5.56128 10.2553 6.75751 8.95487 6.75751 7.22079L6.75751 7.22079Z" transform="translate(36.15465 0.2251274)" id="Shape" fill="#12161B" fill-rule="evenodd" stroke="none" />
            <path d="M0 0.822339C0 0.329371 0.329006 0 0.837179 0C1.33051 0 1.6892 0.329371 1.6892 0.822339C1.6892 1.33051 1.33051 1.65952 0.837179 1.65952C0.329006 1.65988 0 1.33051 0 0.822339L0 0.822339ZM0.254078 3.12467L1.39022 3.12467L1.39022 10.6745L0.254072 10.6745L0.254072 3.12467L0.254078 3.12467Z" transform="translate(46.606155 0.5385705)" id="Shape" fill="#12161B" fill-rule="evenodd" stroke="none" />
            <path d="M0 9.23864L0.882058 8.49122C1.47999 9.53797 2.76598 10.2253 4.14101 10.2253C6.00972 10.2253 7.25047 9.04392 7.25047 7.2208L7.25047 6.38362L7.23527 6.38362C6.63734 7.3254 5.44147 7.90777 4.37989 7.90777C2.15248 7.90777 0.612405 6.3087 0.612405 3.99189C0.612405 1.61464 2.15212 0 4.37989 0C5.47115 0 6.63733 0.612411 7.2501 1.49519L7.26531 1.49519L7.38475 0.269288L8.40145 0.269288L8.40145 7.22116C8.40145 9.67261 6.71226 11.2565 4.17069 11.2565C2.3921 11.2561 0.732577 10.4497 0 9.23864L0 9.23864ZM7.29536 3.99153C7.29536 2.30197 6.15921 1.01599 4.52974 1.01599C2.88542 1.01599 1.74892 2.22669 1.74892 3.99153C1.74892 5.6952 2.88506 6.87659 4.52974 6.87659C6.15922 6.87622 7.29536 5.63548 7.29536 3.99153L7.29536 3.99153Z" transform="translate(50.23972 3.3946726)" id="Shape" fill="#12161B" fill-rule="evenodd" stroke="none" />
            <path d="M0 0L1.13615 0L1.13615 4.55942L1.15099 4.55942C1.7938 3.64768 2.73558 3.13951 4.05125 3.13951C5.78533 3.13951 6.84691 4.24561 6.84691 6.11397L6.84691 10.9886L5.69593 10.9886L5.69593 6.23378C5.69593 4.94851 4.93367 4.12617 3.73745 4.12617C2.22777 4.12617 1.13615 5.18812 1.13615 6.72747L1.13615 10.9886L1.10457e-05 10.9886L1.10457e-05 0L0 0Z" transform="translate(67.19538 0.2247629)" id="Shape" fill="#12161B" fill-rule="evenodd" stroke="none" />
            <path d="M0 3.9908C0 1.67436 1.61463 0 3.85724 0C6.06981 0 7.51976 1.67436 7.5498 4.00637C7.5498 4.14101 7.5498 4.30533 7.53496 4.45481L1.18138 4.45481C1.3457 6.02421 2.55677 7.11583 4.18625 7.11583C5.36727 7.11583 6.36877 6.5027 6.78754 5.68072L7.7742 6.08393C7.28087 7.29536 5.8606 8.14738 4.17141 8.14738C1.76412 8.14737 0 6.3981 0 3.9908L0 3.9908ZM6.33873 3.45259C6.18925 1.91288 5.21742 1.04602 3.84204 1.04602C2.43697 1.04602 1.40543 2.01748 1.19586 3.45259L6.33873 3.45259L6.33873 3.45259Z" transform="translate(76.660225 3.364634)" id="Shape" fill="#12161B" fill-rule="evenodd" stroke="none" />
            <path d="M0 0.298968L0.98666 0.298968L1.1061 1.40507L1.12131 1.40507C1.56976 0.522648 2.55642 0 3.76749 0C4.96335 0 5.77049 0.553416 6.15922 1.52487L6.17405 1.52487C6.84691 0.462924 7.89329 0 9.01459 0C10.6593 0 11.6311 1.04638 11.6311 2.8257L11.6311 7.84913L10.4797 7.84913L10.4797 2.90026C10.4797 1.73408 9.80725 1.04638 8.6711 1.04638C7.23563 1.04638 6.38361 2.12317 6.38361 3.64804L6.38361 7.84913L5.24746 7.84913L5.24746 2.90026C5.24746 1.73408 4.57497 1.04638 3.42362 1.04638C1.98851 1.04638 1.13649 2.12317 1.13649 3.64804L1.13649 7.84913L0.000347939 7.84913L0.000347939 0.298968L0 0.298968Z" transform="translate(87.037186 3.3642693)" id="Shape" fill="#12161B" fill-rule="evenodd" stroke="none" />
            <path d="M2.20913e-05 0.298968L0.987041 0.298968L1.10648 1.59907L1.12131 1.59907C1.76413 0.597571 2.79567 0 4.06682 0C6.27902 0 7.90922 1.71887 7.90922 4.08129C7.90922 6.42813 6.27902 8.14737 4.08202 8.14737C2.82607 8.14737 1.80973 7.56428 1.15171 6.59282L1.13651 6.59282L1.13651 10.9876L0 10.9876L0 0.298968L2.20913e-05 0.298968ZM6.75753 4.08165C6.75753 2.33237 5.56131 1.04638 3.93146 1.04638C2.30235 1.04638 1.10612 2.36205 1.10612 4.08165C1.10612 5.78533 2.30235 7.10099 3.93146 7.10099C5.57687 7.10063 6.75753 5.78533 6.75753 4.08165L6.75753 4.08165Z" transform="translate(101.585526 3.3642693)" id="Shape" fill="#12161B" fill-rule="evenodd" stroke="none" />
            <path d="M0 9.01387L0.972185 8.35622C1.45067 9.31284 2.46738 9.95601 3.81201 9.95601C5.51713 9.95601 6.56315 8.99903 6.56315 7.3996L6.56315 6.74194L6.54832 6.74194C6.02494 7.62436 5.00824 8.14774 3.96223 8.14774C2.07795 8.14774 0.852759 6.74194 0.852759 4.81386L0.852759 0L1.98891 0L1.98891 4.81386C1.98891 6.15921 2.78084 7.11583 4.09651 7.11583C5.41218 7.11583 6.54797 6.08393 6.54797 4.64882L6.54797 5.52284e-06L7.68448 5.52284e-06L7.69896 7.3996C7.69896 9.65705 6.20413 10.9872 3.8428 10.9872C1.97369 10.9868 0.58309 10.2094 0 9.01387L0 9.01387Z" transform="translate(111.245125 3.6639605)" id="Shape" fill="#12161B" fill-rule="evenodd" stroke="none" />
            <path d="M1.65879 4.60465L0 4.60465L0 3.66324L1.65879 3.66324L1.65879 2.34757C1.65879 0.956616 2.64581 0 4.1106 0C5.44147 0 6.4274 0.807859 6.69705 1.9288L5.69482 2.34757C5.53014 1.57011 4.90289 0.987384 4.15475 0.987384C3.36282 0.987384 2.79456 1.61427 2.79456 2.54194L2.79456 3.66324L6.05351 3.66324L6.05351 4.60466L2.79456 4.60466L2.80976 11.2134L1.67362 11.2134L1.65879 4.60465L1.65879 4.60465Z" transform="translate(126.73598 0)" id="Shape" fill="#12161B" fill-rule="evenodd" stroke="none" />
            <path d="M0 5.87509C0 4.66366 0.956987 3.69184 3.4088 3.39287L5.27715 3.16883C5.65032 3.12431 5.88956 2.91438 5.88956 2.58646C5.88956 1.64396 4.99229 1.03154 3.67699 1.03154C2.25707 1.03154 1.25594 1.94328 1.19621 2.84018L0.164304 2.40693C0.298951 1.16582 1.76338 0 3.72222 0C5.6503 0 7.01121 1.07642 7.01121 2.76598L7.01121 6.59319C7.01121 6.89215 7.17589 7.10063 7.41514 7.10063C7.62362 7.10063 7.86287 6.9211 8.02755 6.6529L8.63995 7.37028C8.32651 7.83321 7.69853 8.14737 7.1158 8.14737C6.38323 8.14737 5.91958 7.624 5.8747 6.93631L5.85987 6.59282L5.84467 6.59282C5.30646 7.5498 4.26008 8.14737 2.91436 8.14737C1.19623 8.14701 0 7.21971 0 5.87509L0 5.87509ZM5.86025 4.61914L5.86025 4.08093L3.52824 4.36469C1.70369 4.58837 1.13651 5.17183 1.13651 5.85953C1.13651 6.62142 1.95849 7.11547 3.10983 7.11547C4.69371 7.11511 5.86025 6.08357 5.86025 4.61914L5.86025 4.61914Z" transform="translate(134.63072 3.3649929)" id="Shape" fill="#12161B" fill-rule="evenodd" stroke="none" />
            <path d="M1.10457e-05 0.298968L0.98703 0.298968L1.10647 1.40507L1.12095 1.40507C1.57012 0.522648 2.55642 0 3.76784 0C4.9637 0 5.77084 0.553416 6.15957 1.52487L6.17477 1.52487C6.8469 0.462924 7.89364 0 9.01459 0C10.66 0 11.6311 1.04638 11.6311 2.8257L11.6311 7.84913L10.4801 7.84913L10.4801 2.90026C10.4801 1.73408 9.80725 1.04638 8.67075 1.04638C7.23564 1.04638 6.38326 2.12317 6.38326 3.64804L6.38326 7.84913L5.24711 7.84913L5.24711 2.90026C5.24711 1.73408 4.57498 1.04638 3.424 1.04638C1.98889 1.04638 1.13651 2.12317 1.13651 3.64804L1.13651 7.84913L0 7.84913L0 0.298968L1.10457e-05 0.298968Z" transform="translate(145.51547 3.3642693)" id="Shape" fill="#12161B" fill-rule="evenodd" stroke="none" />
            <path d="M0 0.822339C0 0.329371 0.329007 0 0.837175 0C1.33087 0 1.68956 0.329371 1.68956 0.822339C1.68956 1.33051 1.33087 1.65952 0.837175 1.65952C0.329007 1.65988 0 1.33051 0 0.822339L0 0.822339ZM0.254449 3.12467L1.39096 3.12467L1.39096 10.6745L0.254449 10.6745L0.254449 3.12467L0.254449 3.12467Z" transform="translate(159.91437 0.5385705)" id="Shape" fill="#12161B" fill-rule="evenodd" stroke="none" />
            <path d="M0 0L1.13615 0L1.13615 10.9883L0 10.9883L0 0L0 0Z" transform="translate(164.44556 0.2247629)" id="Shape" fill="#12161B" fill-rule="evenodd" stroke="none" />
            <path d="M0 9.01387L0.972184 8.35622C1.45032 9.31284 2.46702 9.95601 3.812 9.95601C5.51712 9.95601 6.56278 8.99903 6.56278 7.3996L6.56278 6.74194L6.5483 6.74194C6.02493 7.62436 5.00823 8.14774 3.96221 8.14774C2.07793 8.14774 0.852383 6.74194 0.852383 4.81386L0.852383 0L1.98889 0L1.98889 4.81386C1.98889 6.15921 2.78082 7.11583 4.0965 7.11583C5.41217 7.11583 6.54795 6.08393 6.54795 4.64882L6.54795 5.52284e-06L7.68409 5.52284e-06L7.69893 7.3996C7.69893 9.65705 6.20373 10.9872 3.84278 10.9872C1.97332 10.9868 0.582372 10.2094 0 9.01387L0 9.01387Z" transform="translate(167.63031 3.6639605)" id="Shape" fill="#12161B" fill-rule="evenodd" stroke="none" />
            <path d="M0 0.822698C0 0.344205 0.343123 0 0.837175 0C1.33123 0 1.68956 0.344211 1.68956 0.822698C1.68956 1.3153 1.33087 1.65988 0.837175 1.65988C0.343477 1.65988 0 1.31567 0 0.822698L0 0.822698Z" transform="translate(178.17155 9.732692)" id="Shape" fill="#12161B" fill-rule="evenodd" stroke="none" />
            <path d="M0.907757 7.92768L0.895813 7.92768L0.798812 8.89624L0 8.89624L0 0L0.919701 0L0.919701 3.71609L0.931645 3.71609C1.23423 3.01391 1.85171 2.61469 2.65052 2.61469C4.06681 2.61469 4.9257 3.83698 4.9257 5.84613C4.9257 7.84334 4.06645 9.06562 2.65052 9.06562C1.83976 9.06527 1.19804 8.65409 0.907757 7.92768L0.907757 7.92768ZM4.00601 5.84613C4.00601 4.39328 3.41278 3.5105 2.44494 3.5105C1.47674 3.5105 0.895815 4.39328 0.895815 5.84613C0.895815 7.28631 1.47674 8.16982 2.44494 8.16982C3.41314 8.16945 4.00601 7.28594 4.00601 5.84613L4.00601 5.84613Z" transform="translate(0.15672153 24.389639)" id="Shape" fill="#12161B" fill-rule="evenodd" stroke="none" />
            <path d="M0 7.29788L0.762255 6.71661C1.06484 7.51505 1.65807 7.98775 2.42032 7.98775C3.34039 7.98775 3.93325 7.29825 3.93325 6.12374L3.93325 5.61557L3.92094 5.61557C3.64261 6.18419 3.09824 6.52369 2.48077 6.52369C1.37937 6.52369 0.725698 5.78532 0.725698 4.51417L0.725698 0L1.64576 0L1.64576 4.51417C1.64576 5.24024 2.03304 5.68797 2.68671 5.68797C3.46127 5.68797 3.92131 5.19137 3.92131 4.35709L3.92131 5.52284e-06L4.84137 5.52284e-06L4.85331 6.12375C4.85331 7.81838 3.93325 8.82241 2.40838 8.82241C1.31929 8.82203 0.423475 8.25305 0 7.29788L0 7.29788Z" transform="translate(6.4147415 27.174452)" id="Shape" fill="#12161B" fill-rule="evenodd" stroke="none" />
            <path d="M2.85683 7.41914L2.84452 7.41914L2.46919 9.02943L0 9.02943L0 0L2.86877 0L2.86877 4.3817L2.88072 4.3817C3.36464 3.29189 4.69623 2.57813 6.25766 2.57813C8.48434 2.57813 9.93719 3.89742 9.93719 5.90585C9.93719 7.91537 8.48471 9.22271 6.25766 9.22271C4.68429 9.22271 3.34111 8.52054 2.85683 7.41914L2.85683 7.41914ZM7.06878 5.90585C7.06878 5.04732 6.22146 4.47834 4.91412 4.47834C3.61908 4.47834 2.75983 5.04732 2.75983 5.90585C2.75983 6.76547 3.61908 7.32214 4.91412 7.32214C6.22146 7.32214 7.06878 6.76547 7.06878 5.90585L7.06878 5.90585Z" transform="translate(18.070444 24.256437)" id="Shape" fill="#12161B" fill-rule="evenodd" stroke="none" />
            <path d="M0 1.39204C0 0.568974 0.665615 0 1.58568 0C2.50538 0 3.171 0.568615 3.171 1.39204C3.171 2.21438 2.50538 2.7953 1.58568 2.7953C0.665618 2.7953 0 2.21438 0 1.39204L0 1.39204ZM0.157445 3.46091L3.01355 3.46091L3.01355 9.70663L0.157445 9.70663L0.157445 3.46091L0.157445 3.46091Z" transform="translate(29.872736 23.579245)" id="Shape" fill="#12161B" fill-rule="evenodd" stroke="none" />
            <path d="M0 3.32772C0 1.31893 1.9849 0 5.01076 0C8.04856 0 10.0335 1.31929 10.0335 3.32772C10.0335 5.33723 8.04856 6.64458 5.01076 6.64458C1.9849 6.64458 0 5.33723 0 3.32772L0 3.32772ZM7.16542 3.32772C7.16542 2.33635 6.3181 1.68268 5.01076 1.68268C3.70341 1.68268 2.8561 2.33635 2.8561 3.32772C2.8561 4.32053 3.70341 4.97456 5.01076 4.97456C6.3181 4.97456 7.16542 4.3209 7.16542 3.32772L7.16542 3.32772Z" transform="translate(34.908104 26.83457)" id="Shape" fill="#12161B" fill-rule="evenodd" stroke="none" />
            <path d="M2.85647 7.41914L2.84416 7.41914L2.46882 9.02943L0 9.02943L0 0L2.86841 0L2.86841 4.3817L2.88072 4.3817C3.36464 3.29189 4.69623 2.57813 6.25766 2.57813C8.48434 2.57813 9.93719 3.89742 9.93719 5.90585C9.93719 7.91537 8.4847 9.22271 6.25766 9.22271C4.68392 9.22271 3.34038 8.52054 2.85647 7.41914L2.85647 7.41914ZM7.06841 5.90585C7.06841 5.04732 6.2211 4.47834 4.91375 4.47834C3.61872 4.47834 2.75946 5.04732 2.75946 5.90585C2.75946 6.76547 3.61872 7.32214 4.91375 7.32214C6.2211 7.32214 7.06841 6.76547 7.06841 5.90585L7.06841 5.90585Z" transform="translate(46.90332 24.256437)" id="Shape" fill="#12161B" fill-rule="evenodd" stroke="none" />
            <path d="M0 0L2.86877 0L2.86877 9.02943L0 9.02943L0 0L0 0Z" transform="translate(58.813835 24.256445)" id="Shape" fill="#12161B" fill-rule="evenodd" stroke="none" />
            <path d="M0 3.32772C0 1.31893 1.98454 0 5.0104 0C8.04856 0 10.0331 1.31929 10.0331 3.32772C10.0331 5.33723 8.0482 6.64458 5.0104 6.64458C1.98454 6.64458 0 5.33723 0 3.32772L0 3.32772ZM7.16505 3.32772C7.16505 2.33635 6.31774 1.68268 5.01039 1.68268C3.70305 1.68268 2.85574 2.33635 2.85574 3.32772C2.85574 4.32053 3.70305 4.97456 5.01039 4.97456C6.31774 4.97456 7.16505 4.3209 7.16505 3.32772L7.16505 3.32772Z" transform="translate(63.655563 26.83457)" id="Shape" fill="#12161B" fill-rule="evenodd" stroke="none" />
            <path d="M0 0L2.86877 0L2.86877 4.63579L2.88108 4.63579L5.30176 2.78408L8.84773 2.78408L5.68868 5.15699L8.90818 9.02979L5.62824 9.02979L3.67989 6.55988L2.86878 7.16578L2.86878 9.02979L5.52284e-06 9.02979L5.52284e-06 0L0 0Z" transform="translate(75.650764 24.256445)" id="Shape" fill="#12161B" fill-rule="evenodd" stroke="none" />
          </g>
        </g>
      </g>
    </g>
  </g>
</svg>